<?xml version="1.0" encoding="utf-8" standalone="no"?>
<!DOCTYPE svg PUBLIC "-//W3C//DTD SVG 1.1//EN"
  "http://www.w3.org/Graphics/SVG/1.1/DTD/svg11.dtd">
<!-- Created with matplotlib (https://matplotlib.org/) -->
<svg height="345.6pt" version="1.1" viewBox="0 0 460.8 345.6" width="460.8pt" xmlns="http://www.w3.org/2000/svg" xmlns:xlink="http://www.w3.org/1999/xlink">
 <metadata>
  <rdf:RDF xmlns:cc="http://creativecommons.org/ns#" xmlns:dc="http://purl.org/dc/elements/1.1/" xmlns:rdf="http://www.w3.org/1999/02/22-rdf-syntax-ns#">
   <cc:Work>
    <dc:type rdf:resource="http://purl.org/dc/dcmitype/StillImage"/>
    <dc:date>2021-01-05T11:50:22.857202</dc:date>
    <dc:format>image/svg+xml</dc:format>
    <dc:creator>
     <cc:Agent>
      <dc:title>Matplotlib v3.3.3, https://matplotlib.org/</dc:title>
     </cc:Agent>
    </dc:creator>
   </cc:Work>
  </rdf:RDF>
 </metadata>
 <defs>
  <style type="text/css">*{stroke-linecap:butt;stroke-linejoin:round;}</style>
 </defs>
 <g id="figure_1">
  <g id="patch_1">
   <path d="M 0 345.6 
L 460.8 345.6 
L 460.8 0 
L 0 0 
z
" style="fill:#ffffff;"/>
  </g>
  <g id="axes_1">
   <g id="patch_2">
    <path d="M 57.6 307.584 
L 414.72 307.584 
L 414.72 41.472 
L 57.6 41.472 
z
" style="fill:#ffffff;"/>
   </g>
   <g id="matplotlib.axis_1">
    <g id="xtick_1">
     <g id="line2d_1">
      <defs>
       <path d="M 0 0 
L 0 3.5 
" id="mee12c78b29" style="stroke:#000000;stroke-width:0.8;"/>
      </defs>
      <g>
       <use style="stroke:#000000;stroke-width:0.8;" x="106.298182" xlink:href="#mee12c78b29" y="307.584"/>
      </g>
     </g>
     <g id="text_1">
      <!-- −1.0 -->
      <g transform="translate(94.156776 322.182437)scale(0.1 -0.1)">
       <defs>
        <path d="M 10.59375 35.5 
L 73.1875 35.5 
L 73.1875 27.203125 
L 10.59375 27.203125 
z
" id="DejaVuSans-8722"/>
        <path d="M 12.40625 8.296875 
L 28.515625 8.296875 
L 28.515625 63.921875 
L 10.984375 60.40625 
L 10.984375 69.390625 
L 28.421875 72.90625 
L 38.28125 72.90625 
L 38.28125 8.296875 
L 54.390625 8.296875 
L 54.390625 0 
L 12.40625 0 
z
" id="DejaVuSans-49"/>
        <path d="M 10.6875 12.40625 
L 21 12.40625 
L 21 0 
L 10.6875 0 
z
" id="DejaVuSans-46"/>
        <path d="M 31.78125 66.40625 
Q 24.171875 66.40625 20.328125 58.90625 
Q 16.5 51.421875 16.5 36.375 
Q 16.5 21.390625 20.328125 13.890625 
Q 24.171875 6.390625 31.78125 6.390625 
Q 39.453125 6.390625 43.28125 13.890625 
Q 47.125 21.390625 47.125 36.375 
Q 47.125 51.421875 43.28125 58.90625 
Q 39.453125 66.40625 31.78125 66.40625 
z
M 31.78125 74.21875 
Q 44.046875 74.21875 50.515625 64.515625 
Q 56.984375 54.828125 56.984375 36.375 
Q 56.984375 17.96875 50.515625 8.265625 
Q 44.046875 -1.421875 31.78125 -1.421875 
Q 19.53125 -1.421875 13.0625 8.265625 
Q 6.59375 17.96875 6.59375 36.375 
Q 6.59375 54.828125 13.0625 64.515625 
Q 19.53125 74.21875 31.78125 74.21875 
z
" id="DejaVuSans-48"/>
       </defs>
       <use xlink:href="#DejaVuSans-8722"/>
       <use x="83.789062" xlink:href="#DejaVuSans-49"/>
       <use x="147.412109" xlink:href="#DejaVuSans-46"/>
       <use x="179.199219" xlink:href="#DejaVuSans-48"/>
      </g>
     </g>
    </g>
    <g id="xtick_2">
     <g id="line2d_2">
      <g>
       <use style="stroke:#000000;stroke-width:0.8;" x="171.229091" xlink:href="#mee12c78b29" y="307.584"/>
      </g>
     </g>
     <g id="text_2">
      <!-- −0.5 -->
      <g transform="translate(159.087685 322.182437)scale(0.1 -0.1)">
       <defs>
        <path d="M 10.796875 72.90625 
L 49.515625 72.90625 
L 49.515625 64.59375 
L 19.828125 64.59375 
L 19.828125 46.734375 
Q 21.96875 47.46875 24.109375 47.828125 
Q 26.265625 48.1875 28.421875 48.1875 
Q 40.625 48.1875 47.75 41.5 
Q 54.890625 34.8125 54.890625 23.390625 
Q 54.890625 11.625 47.5625 5.09375 
Q 40.234375 -1.421875 26.90625 -1.421875 
Q 22.3125 -1.421875 17.546875 -0.640625 
Q 12.796875 0.140625 7.71875 1.703125 
L 7.71875 11.625 
Q 12.109375 9.234375 16.796875 8.0625 
Q 21.484375 6.890625 26.703125 6.890625 
Q 35.15625 6.890625 40.078125 11.328125 
Q 45.015625 15.765625 45.015625 23.390625 
Q 45.015625 31 40.078125 35.4375 
Q 35.15625 39.890625 26.703125 39.890625 
Q 22.75 39.890625 18.8125 39.015625 
Q 14.890625 38.140625 10.796875 36.28125 
z
" id="DejaVuSans-53"/>
       </defs>
       <use xlink:href="#DejaVuSans-8722"/>
       <use x="83.789062" xlink:href="#DejaVuSans-48"/>
       <use x="147.412109" xlink:href="#DejaVuSans-46"/>
       <use x="179.199219" xlink:href="#DejaVuSans-53"/>
      </g>
     </g>
    </g>
    <g id="xtick_3">
     <g id="line2d_3">
      <g>
       <use style="stroke:#000000;stroke-width:0.8;" x="236.16" xlink:href="#mee12c78b29" y="307.584"/>
      </g>
     </g>
     <g id="text_3">
      <!-- 0.0 -->
      <g transform="translate(228.208438 322.182437)scale(0.1 -0.1)">
       <use xlink:href="#DejaVuSans-48"/>
       <use x="63.623047" xlink:href="#DejaVuSans-46"/>
       <use x="95.410156" xlink:href="#DejaVuSans-48"/>
      </g>
     </g>
    </g>
    <g id="xtick_4">
     <g id="line2d_4">
      <g>
       <use style="stroke:#000000;stroke-width:0.8;" x="301.090909" xlink:href="#mee12c78b29" y="307.584"/>
      </g>
     </g>
     <g id="text_4">
      <!-- 0.5 -->
      <g transform="translate(293.139347 322.182437)scale(0.1 -0.1)">
       <use xlink:href="#DejaVuSans-48"/>
       <use x="63.623047" xlink:href="#DejaVuSans-46"/>
       <use x="95.410156" xlink:href="#DejaVuSans-53"/>
      </g>
     </g>
    </g>
    <g id="xtick_5">
     <g id="line2d_5">
      <g>
       <use style="stroke:#000000;stroke-width:0.8;" x="366.021818" xlink:href="#mee12c78b29" y="307.584"/>
      </g>
     </g>
     <g id="text_5">
      <!-- 1.0 -->
      <g transform="translate(358.070256 322.182437)scale(0.1 -0.1)">
       <use xlink:href="#DejaVuSans-49"/>
       <use x="63.623047" xlink:href="#DejaVuSans-46"/>
       <use x="95.410156" xlink:href="#DejaVuSans-48"/>
      </g>
     </g>
    </g>
   </g>
   <g id="matplotlib.axis_2">
    <g id="ytick_1">
     <g id="line2d_6">
      <defs>
       <path d="M 0 0 
L -3.5 0 
" id="m5282411a83" style="stroke:#000000;stroke-width:0.8;"/>
      </defs>
      <g>
       <use style="stroke:#000000;stroke-width:0.8;" x="57.6" xlink:href="#m5282411a83" y="285.408"/>
      </g>
     </g>
     <g id="text_6">
      <!-- 0.0 -->
      <g transform="translate(34.696875 289.207219)scale(0.1 -0.1)">
       <use xlink:href="#DejaVuSans-48"/>
       <use x="63.623047" xlink:href="#DejaVuSans-46"/>
       <use x="95.410156" xlink:href="#DejaVuSans-48"/>
      </g>
     </g>
    </g>
    <g id="ytick_2">
     <g id="line2d_7">
      <g>
       <use style="stroke:#000000;stroke-width:0.8;" x="57.6" xlink:href="#m5282411a83" y="241.056"/>
      </g>
     </g>
     <g id="text_7">
      <!-- 0.2 -->
      <g transform="translate(34.696875 244.855219)scale(0.1 -0.1)">
       <defs>
        <path d="M 19.1875 8.296875 
L 53.609375 8.296875 
L 53.609375 0 
L 7.328125 0 
L 7.328125 8.296875 
Q 12.9375 14.109375 22.625 23.890625 
Q 32.328125 33.6875 34.8125 36.53125 
Q 39.546875 41.84375 41.421875 45.53125 
Q 43.3125 49.21875 43.3125 52.78125 
Q 43.3125 58.59375 39.234375 62.25 
Q 35.15625 65.921875 28.609375 65.921875 
Q 23.96875 65.921875 18.8125 64.3125 
Q 13.671875 62.703125 7.8125 59.421875 
L 7.8125 69.390625 
Q 13.765625 71.78125 18.9375 73 
Q 24.125 74.21875 28.421875 74.21875 
Q 39.75 74.21875 46.484375 68.546875 
Q 53.21875 62.890625 53.21875 53.421875 
Q 53.21875 48.921875 51.53125 44.890625 
Q 49.859375 40.875 45.40625 35.40625 
Q 44.1875 33.984375 37.640625 27.21875 
Q 31.109375 20.453125 19.1875 8.296875 
z
" id="DejaVuSans-50"/>
       </defs>
       <use xlink:href="#DejaVuSans-48"/>
       <use x="63.623047" xlink:href="#DejaVuSans-46"/>
       <use x="95.410156" xlink:href="#DejaVuSans-50"/>
      </g>
     </g>
    </g>
    <g id="ytick_3">
     <g id="line2d_8">
      <g>
       <use style="stroke:#000000;stroke-width:0.8;" x="57.6" xlink:href="#m5282411a83" y="196.704"/>
      </g>
     </g>
     <g id="text_8">
      <!-- 0.4 -->
      <g transform="translate(34.696875 200.503219)scale(0.1 -0.1)">
       <defs>
        <path d="M 37.796875 64.3125 
L 12.890625 25.390625 
L 37.796875 25.390625 
z
M 35.203125 72.90625 
L 47.609375 72.90625 
L 47.609375 25.390625 
L 58.015625 25.390625 
L 58.015625 17.1875 
L 47.609375 17.1875 
L 47.609375 0 
L 37.796875 0 
L 37.796875 17.1875 
L 4.890625 17.1875 
L 4.890625 26.703125 
z
" id="DejaVuSans-52"/>
       </defs>
       <use xlink:href="#DejaVuSans-48"/>
       <use x="63.623047" xlink:href="#DejaVuSans-46"/>
       <use x="95.410156" xlink:href="#DejaVuSans-52"/>
      </g>
     </g>
    </g>
    <g id="ytick_4">
     <g id="line2d_9">
      <g>
       <use style="stroke:#000000;stroke-width:0.8;" x="57.6" xlink:href="#m5282411a83" y="152.352"/>
      </g>
     </g>
     <g id="text_9">
      <!-- 0.6 -->
      <g transform="translate(34.696875 156.151219)scale(0.1 -0.1)">
       <defs>
        <path d="M 33.015625 40.375 
Q 26.375 40.375 22.484375 35.828125 
Q 18.609375 31.296875 18.609375 23.390625 
Q 18.609375 15.53125 22.484375 10.953125 
Q 26.375 6.390625 33.015625 6.390625 
Q 39.65625 6.390625 43.53125 10.953125 
Q 47.40625 15.53125 47.40625 23.390625 
Q 47.40625 31.296875 43.53125 35.828125 
Q 39.65625 40.375 33.015625 40.375 
z
M 52.59375 71.296875 
L 52.59375 62.3125 
Q 48.875 64.0625 45.09375 64.984375 
Q 41.3125 65.921875 37.59375 65.921875 
Q 27.828125 65.921875 22.671875 59.328125 
Q 17.53125 52.734375 16.796875 39.40625 
Q 19.671875 43.65625 24.015625 45.921875 
Q 28.375 48.1875 33.59375 48.1875 
Q 44.578125 48.1875 50.953125 41.515625 
Q 57.328125 34.859375 57.328125 23.390625 
Q 57.328125 12.15625 50.6875 5.359375 
Q 44.046875 -1.421875 33.015625 -1.421875 
Q 20.359375 -1.421875 13.671875 8.265625 
Q 6.984375 17.96875 6.984375 36.375 
Q 6.984375 53.65625 15.1875 63.9375 
Q 23.390625 74.21875 37.203125 74.21875 
Q 40.921875 74.21875 44.703125 73.484375 
Q 48.484375 72.75 52.59375 71.296875 
z
" id="DejaVuSans-54"/>
       </defs>
       <use xlink:href="#DejaVuSans-48"/>
       <use x="63.623047" xlink:href="#DejaVuSans-46"/>
       <use x="95.410156" xlink:href="#DejaVuSans-54"/>
      </g>
     </g>
    </g>
    <g id="ytick_5">
     <g id="line2d_10">
      <g>
       <use style="stroke:#000000;stroke-width:0.8;" x="57.6" xlink:href="#m5282411a83" y="108"/>
      </g>
     </g>
     <g id="text_10">
      <!-- 0.8 -->
      <g transform="translate(34.696875 111.799219)scale(0.1 -0.1)">
       <defs>
        <path d="M 31.78125 34.625 
Q 24.75 34.625 20.71875 30.859375 
Q 16.703125 27.09375 16.703125 20.515625 
Q 16.703125 13.921875 20.71875 10.15625 
Q 24.75 6.390625 31.78125 6.390625 
Q 38.8125 6.390625 42.859375 10.171875 
Q 46.921875 13.96875 46.921875 20.515625 
Q 46.921875 27.09375 42.890625 30.859375 
Q 38.875 34.625 31.78125 34.625 
z
M 21.921875 38.8125 
Q 15.578125 40.375 12.03125 44.71875 
Q 8.5 49.078125 8.5 55.328125 
Q 8.5 64.0625 14.71875 69.140625 
Q 20.953125 74.21875 31.78125 74.21875 
Q 42.671875 74.21875 48.875 69.140625 
Q 55.078125 64.0625 55.078125 55.328125 
Q 55.078125 49.078125 51.53125 44.71875 
Q 48 40.375 41.703125 38.8125 
Q 48.828125 37.15625 52.796875 32.3125 
Q 56.78125 27.484375 56.78125 20.515625 
Q 56.78125 9.90625 50.3125 4.234375 
Q 43.84375 -1.421875 31.78125 -1.421875 
Q 19.734375 -1.421875 13.25 4.234375 
Q 6.78125 9.90625 6.78125 20.515625 
Q 6.78125 27.484375 10.78125 32.3125 
Q 14.796875 37.15625 21.921875 38.8125 
z
M 18.3125 54.390625 
Q 18.3125 48.734375 21.84375 45.5625 
Q 25.390625 42.390625 31.78125 42.390625 
Q 38.140625 42.390625 41.71875 45.5625 
Q 45.3125 48.734375 45.3125 54.390625 
Q 45.3125 60.0625 41.71875 63.234375 
Q 38.140625 66.40625 31.78125 66.40625 
Q 25.390625 66.40625 21.84375 63.234375 
Q 18.3125 60.0625 18.3125 54.390625 
z
" id="DejaVuSans-56"/>
       </defs>
       <use xlink:href="#DejaVuSans-48"/>
       <use x="63.623047" xlink:href="#DejaVuSans-46"/>
       <use x="95.410156" xlink:href="#DejaVuSans-56"/>
      </g>
     </g>
    </g>
    <g id="ytick_6">
     <g id="line2d_11">
      <g>
       <use style="stroke:#000000;stroke-width:0.8;" x="57.6" xlink:href="#m5282411a83" y="63.648"/>
      </g>
     </g>
     <g id="text_11">
      <!-- 1.0 -->
      <g transform="translate(34.696875 67.447219)scale(0.1 -0.1)">
       <use xlink:href="#DejaVuSans-49"/>
       <use x="63.623047" xlink:href="#DejaVuSans-46"/>
       <use x="95.410156" xlink:href="#DejaVuSans-48"/>
      </g>
     </g>
    </g>
   </g>
   <g id="line2d_12">
    <path clip-path="url(#p1e5608de7e)" d="M 73.832727 279.872649 
L 86.831908 278.896514 
L 97.881212 277.851203 
L 107.630598 276.707988 
L 116.080066 275.497196 
L 123.554595 274.206474 
L 130.379165 272.799321 
L 136.228796 271.376116 
L 141.753448 269.804711 
L 146.628141 268.194843 
L 151.177854 266.464076 
L 155.402588 264.620824 
L 159.302342 262.679514 
L 162.877117 260.661497 
L 166.451892 258.37564 
L 169.701687 256.026095 
L 172.626503 253.654858 
L 175.551319 251.003201 
L 178.476134 248.028805 
L 181.075971 245.074017 
L 183.675807 241.784637 
L 186.275643 238.11409 
L 188.875479 234.008957 
L 191.150336 230.012732 
L 193.425192 225.591302 
L 195.700049 220.693907 
L 197.974906 215.265135 
L 200.249762 209.245601 
L 202.524619 202.573385 
L 204.799476 195.186603 
L 207.074333 187.027644 
L 209.349189 178.049712 
L 211.624046 168.226449 
L 214.223882 155.976599 
L 217.148698 141.013975 
L 221.048452 119.733503 
L 225.598165 95.116445 
L 227.873022 84.138278 
L 229.49792 77.338083 
L 230.797838 72.713929 
L 232.097756 68.943367 
L 233.072695 66.737768 
L 234.047633 65.105255 
L 234.697592 64.348846 
L 235.347551 63.864784 
L 235.99751 63.65668 
L 236.647469 63.726091 
L 237.297428 64.072499 
L 237.947387 64.693311 
L 238.597346 65.583917 
L 239.572285 67.410863 
L 240.547224 69.800071 
L 241.522162 72.713929 
L 242.82208 77.338083 
L 244.446978 84.138278 
L 246.396855 93.466099 
L 248.996691 107.184073 
L 257.446159 152.752165 
L 260.045995 165.264471 
L 262.645831 176.698408 
L 264.920688 185.796112 
L 267.195545 194.069559 
L 269.470401 201.563294 
L 271.745258 208.333847 
L 274.020115 214.442796 
L 276.294971 219.952248 
L 278.569828 224.922059 
L 280.844685 229.408264 
L 283.119541 233.462308 
L 285.719378 237.62589 
L 288.319214 241.34769 
L 290.91905 244.682036 
L 293.518886 247.676316 
L 296.443702 250.68949 
L 299.368518 253.374794 
L 302.293333 255.775301 
L 305.543129 258.153012 
L 308.792924 260.26706 
L 312.367699 262.330685 
L 316.267453 264.314354 
L 320.492187 266.196339 
L 325.0419 267.962054 
L 329.916593 269.603096 
L 335.116265 271.11617 
L 340.965897 272.577286 
L 347.465487 273.956894 
L 354.615037 275.235987 
L 362.414545 276.404493 
L 371.188993 277.496214 
L 381.263358 278.523768 
L 392.962621 279.486321 
L 398.487273 279.872649 
L 398.487273 279.872649 
" style="fill:none;stroke:#1f77b4;stroke-linecap:square;stroke-width:1.5;"/>
   </g>
   <g id="line2d_13">
    <path clip-path="url(#p1e5608de7e)" d="M 73.832727 294.992681 
L 77.732479 291.79344 
L 81.632231 288.880196 
L 85.531983 286.254482 
L 89.431751 283.914565 
L 93.006531 282.016431 
L 96.581296 280.347827 
L 100.481048 278.77874 
L 104.3808 277.455295 
L 108.280552 276.355815 
L 112.505291 275.385289 
L 117.379981 274.494242 
L 124.204555 273.505303 
L 133.953935 272.100112 
L 138.503645 271.216356 
L 142.403405 270.240575 
L 145.978178 269.119682 
L 149.227971 267.882517 
L 152.477772 266.418057 
L 155.727565 264.716368 
L 158.977359 262.776855 
L 162.552131 260.380049 
L 166.451891 257.478569 
L 170.676622 254.042555 
L 175.226337 250.045904 
L 179.451068 246.049266 
L 183.025845 242.371504 
L 185.950658 239.050526 
L 188.550493 235.748047 
L 190.825352 232.484224 
L 192.775228 229.32662 
L 194.725104 225.758672 
L 196.674984 221.700842 
L 198.62486 217.07197 
L 200.574736 211.793662 
L 202.524612 205.795744 
L 204.474492 199.022793 
L 206.424368 191.440971 
L 208.699225 181.567557 
L 210.974082 170.638599 
L 213.573919 157.02247 
L 217.148692 136.936615 
L 222.998325 103.917073 
L 225.27318 92.357811 
L 227.223057 83.572966 
L 228.847954 77.259186 
L 230.147873 72.973181 
L 231.447791 69.438073 
L 232.422729 67.312696 
L 233.397668 65.659319 
L 234.372607 64.492467 
L 235.022566 63.990212 
L 235.672525 63.710917 
L 236.322484 63.655706 
L 236.972443 63.824777 
L 237.622414 64.217468 
L 238.272373 64.83222 
L 239.247312 66.165037 
L 240.22225 67.979911 
L 241.197188 70.260717 
L 242.497107 73.991582 
L 243.797024 78.457589 
L 245.421923 84.970577 
L 247.3718 93.951972 
L 249.646656 105.677172 
L 252.896451 123.858336 
L 259.071062 158.782648 
L 261.670897 172.255416 
L 263.945754 183.033953 
L 266.220611 192.745772 
L 268.170489 200.188257 
L 270.120363 206.826511 
L 272.070243 212.698575 
L 274.020119 217.862739 
L 275.969995 222.39091 
L 277.919871 226.362553 
L 279.869751 229.858351 
L 282.144606 233.440144 
L 284.419466 236.595951 
L 287.0193 239.807801 
L 289.944114 243.05867 
L 293.518891 246.680858 
L 297.743622 250.633229 
L 302.293336 254.586658 
L 306.518068 257.975787 
L 310.417828 260.825678 
L 313.9926 263.169163 
L 317.567373 265.232905 
L 320.817166 266.859132 
L 324.066967 268.250927 
L 327.31676 269.42193 
L 330.891533 270.479258 
L 334.791285 271.400812 
L 339.341003 272.241894 
L 346.165569 273.234613 
L 355.914957 274.654536 
L 360.789647 275.584972 
L 365.339365 276.679416 
L 369.564089 277.935225 
L 373.463856 279.325645 
L 377.363608 280.956843 
L 380.938389 282.674327 
L 384.838141 284.796915 
L 388.737893 287.186504 
L 392.637645 289.843202 
L 396.862368 293.023329 
L 398.487273 294.328202 
L 398.487273 294.328202 
" style="fill:none;stroke:#ff7f0e;stroke-dasharray:9.6,2.4,1.5,2.4;stroke-dashoffset:0;stroke-width:1.5;"/>
   </g>
   <g id="line2d_14">
    <defs>
     <path d="M 0 1.5 
C 0.397805 1.5 0.77937 1.341951 1.06066 1.06066 
C 1.341951 0.77937 1.5 0.397805 1.5 0 
C 1.5 -0.397805 1.341951 -0.77937 1.06066 -1.06066 
C 0.77937 -1.341951 0.397805 -1.5 0 -1.5 
C -0.397805 -1.5 -0.77937 -1.341951 -1.06066 -1.06066 
C -1.341951 -0.77937 -1.5 -0.397805 -1.5 0 
C -1.5 0.397805 -1.341951 0.77937 -1.06066 1.06066 
C -0.77937 1.341951 -0.397805 1.5 0 1.5 
z
" id="m6c54a619ad" style="stroke:#2ca02c;"/>
    </defs>
    <g clip-path="url(#p1e5608de7e)">
     <use style="fill:#2ca02c;stroke:#2ca02c;" x="106.298182" xlink:href="#m6c54a619ad" y="276.878769"/>
     <use style="fill:#2ca02c;stroke:#2ca02c;" x="132.270545" xlink:href="#m6c54a619ad" y="272.363294"/>
     <use style="fill:#2ca02c;stroke:#2ca02c;" x="158.242909" xlink:href="#m6c54a619ad" y="263.232"/>
     <use style="fill:#2ca02c;stroke:#2ca02c;" x="184.215273" xlink:href="#m6c54a619ad" y="241.056"/>
     <use style="fill:#2ca02c;stroke:#2ca02c;" x="210.187636" xlink:href="#m6c54a619ad" y="174.528"/>
     <use style="fill:#2ca02c;stroke:#2ca02c;" x="236.16" xlink:href="#m6c54a619ad" y="63.648"/>
     <use style="fill:#2ca02c;stroke:#2ca02c;" x="262.132364" xlink:href="#m6c54a619ad" y="174.528"/>
     <use style="fill:#2ca02c;stroke:#2ca02c;" x="288.104727" xlink:href="#m6c54a619ad" y="241.056"/>
     <use style="fill:#2ca02c;stroke:#2ca02c;" x="314.077091" xlink:href="#m6c54a619ad" y="263.232"/>
     <use style="fill:#2ca02c;stroke:#2ca02c;" x="340.049455" xlink:href="#m6c54a619ad" y="272.363294"/>
     <use style="fill:#2ca02c;stroke:#2ca02c;" x="366.021818" xlink:href="#m6c54a619ad" y="276.878769"/>
    </g>
   </g>
   <g id="patch_3">
    <path d="M 57.6 307.584 
L 57.6 41.472 
" style="fill:none;stroke:#000000;stroke-linecap:square;stroke-linejoin:miter;stroke-width:0.8;"/>
   </g>
   <g id="patch_4">
    <path d="M 414.72 307.584 
L 414.72 41.472 
" style="fill:none;stroke:#000000;stroke-linecap:square;stroke-linejoin:miter;stroke-width:0.8;"/>
   </g>
   <g id="patch_5">
    <path d="M 57.6 307.584 
L 414.72 307.584 
" style="fill:none;stroke:#000000;stroke-linecap:square;stroke-linejoin:miter;stroke-width:0.8;"/>
   </g>
   <g id="patch_6">
    <path d="M 57.6 41.472 
L 414.72 41.472 
" style="fill:none;stroke:#000000;stroke-linecap:square;stroke-linejoin:miter;stroke-width:0.8;"/>
   </g>
   <g id="legend_1">
    <g id="patch_7">
     <path d="M 64.6 93.506375 
L 172.301562 93.506375 
Q 174.301562 93.506375 174.301562 91.506375 
L 174.301562 48.472 
Q 174.301562 46.472 172.301562 46.472 
L 64.6 46.472 
Q 62.6 46.472 62.6 48.472 
L 62.6 91.506375 
Q 62.6 93.506375 64.6 93.506375 
z
" style="fill:#ffffff;opacity:0.8;stroke:#cccccc;stroke-linejoin:miter;"/>
    </g>
    <g id="line2d_15">
     <path d="M 66.6 54.570438 
L 86.6 54.570438 
" style="fill:none;stroke:#1f77b4;stroke-linecap:square;stroke-width:1.5;"/>
    </g>
    <g id="line2d_16"/>
    <g id="text_12">
     <!-- Runge function -->
     <g transform="translate(94.6 58.070438)scale(0.1 -0.1)">
      <defs>
       <path d="M 44.390625 34.1875 
Q 47.5625 33.109375 50.5625 29.59375 
Q 53.5625 26.078125 56.59375 19.921875 
L 66.609375 0 
L 56 0 
L 46.6875 18.703125 
Q 43.0625 26.03125 39.671875 28.421875 
Q 36.28125 30.8125 30.421875 30.8125 
L 19.671875 30.8125 
L 19.671875 0 
L 9.8125 0 
L 9.8125 72.90625 
L 32.078125 72.90625 
Q 44.578125 72.90625 50.734375 67.671875 
Q 56.890625 62.453125 56.890625 51.90625 
Q 56.890625 45.015625 53.6875 40.46875 
Q 50.484375 35.9375 44.390625 34.1875 
z
M 19.671875 64.796875 
L 19.671875 38.921875 
L 32.078125 38.921875 
Q 39.203125 38.921875 42.84375 42.21875 
Q 46.484375 45.515625 46.484375 51.90625 
Q 46.484375 58.296875 42.84375 61.546875 
Q 39.203125 64.796875 32.078125 64.796875 
z
" id="DejaVuSans-82"/>
       <path d="M 8.5 21.578125 
L 8.5 54.6875 
L 17.484375 54.6875 
L 17.484375 21.921875 
Q 17.484375 14.15625 20.5 10.265625 
Q 23.53125 6.390625 29.59375 6.390625 
Q 36.859375 6.390625 41.078125 11.03125 
Q 45.3125 15.671875 45.3125 23.6875 
L 45.3125 54.6875 
L 54.296875 54.6875 
L 54.296875 0 
L 45.3125 0 
L 45.3125 8.40625 
Q 42.046875 3.421875 37.71875 1 
Q 33.40625 -1.421875 27.6875 -1.421875 
Q 18.265625 -1.421875 13.375 4.4375 
Q 8.5 10.296875 8.5 21.578125 
z
M 31.109375 56 
z
" id="DejaVuSans-117"/>
       <path d="M 54.890625 33.015625 
L 54.890625 0 
L 45.90625 0 
L 45.90625 32.71875 
Q 45.90625 40.484375 42.875 44.328125 
Q 39.84375 48.1875 33.796875 48.1875 
Q 26.515625 48.1875 22.3125 43.546875 
Q 18.109375 38.921875 18.109375 30.90625 
L 18.109375 0 
L 9.078125 0 
L 9.078125 54.6875 
L 18.109375 54.6875 
L 18.109375 46.1875 
Q 21.34375 51.125 25.703125 53.5625 
Q 30.078125 56 35.796875 56 
Q 45.21875 56 50.046875 50.171875 
Q 54.890625 44.34375 54.890625 33.015625 
z
" id="DejaVuSans-110"/>
       <path d="M 45.40625 27.984375 
Q 45.40625 37.75 41.375 43.109375 
Q 37.359375 48.484375 30.078125 48.484375 
Q 22.859375 48.484375 18.828125 43.109375 
Q 14.796875 37.75 14.796875 27.984375 
Q 14.796875 18.265625 18.828125 12.890625 
Q 22.859375 7.515625 30.078125 7.515625 
Q 37.359375 7.515625 41.375 12.890625 
Q 45.40625 18.265625 45.40625 27.984375 
z
M 54.390625 6.78125 
Q 54.390625 -7.171875 48.1875 -13.984375 
Q 42 -20.796875 29.203125 -20.796875 
Q 24.46875 -20.796875 20.265625 -20.09375 
Q 16.0625 -19.390625 12.109375 -17.921875 
L 12.109375 -9.1875 
Q 16.0625 -11.328125 19.921875 -12.34375 
Q 23.78125 -13.375 27.78125 -13.375 
Q 36.625 -13.375 41.015625 -8.765625 
Q 45.40625 -4.15625 45.40625 5.171875 
L 45.40625 9.625 
Q 42.625 4.78125 38.28125 2.390625 
Q 33.9375 0 27.875 0 
Q 17.828125 0 11.671875 7.65625 
Q 5.515625 15.328125 5.515625 27.984375 
Q 5.515625 40.671875 11.671875 48.328125 
Q 17.828125 56 27.875 56 
Q 33.9375 56 38.28125 53.609375 
Q 42.625 51.21875 45.40625 46.390625 
L 45.40625 54.6875 
L 54.390625 54.6875 
z
" id="DejaVuSans-103"/>
       <path d="M 56.203125 29.59375 
L 56.203125 25.203125 
L 14.890625 25.203125 
Q 15.484375 15.921875 20.484375 11.0625 
Q 25.484375 6.203125 34.421875 6.203125 
Q 39.59375 6.203125 44.453125 7.46875 
Q 49.3125 8.734375 54.109375 11.28125 
L 54.109375 2.78125 
Q 49.265625 0.734375 44.1875 -0.34375 
Q 39.109375 -1.421875 33.890625 -1.421875 
Q 20.796875 -1.421875 13.15625 6.1875 
Q 5.515625 13.8125 5.515625 26.8125 
Q 5.515625 40.234375 12.765625 48.109375 
Q 20.015625 56 32.328125 56 
Q 43.359375 56 49.78125 48.890625 
Q 56.203125 41.796875 56.203125 29.59375 
z
M 47.21875 32.234375 
Q 47.125 39.59375 43.09375 43.984375 
Q 39.0625 48.390625 32.421875 48.390625 
Q 24.90625 48.390625 20.390625 44.140625 
Q 15.875 39.890625 15.1875 32.171875 
z
" id="DejaVuSans-101"/>
       <path id="DejaVuSans-32"/>
       <path d="M 37.109375 75.984375 
L 37.109375 68.5 
L 28.515625 68.5 
Q 23.6875 68.5 21.796875 66.546875 
Q 19.921875 64.59375 19.921875 59.515625 
L 19.921875 54.6875 
L 34.71875 54.6875 
L 34.71875 47.703125 
L 19.921875 47.703125 
L 19.921875 0 
L 10.890625 0 
L 10.890625 47.703125 
L 2.296875 47.703125 
L 2.296875 54.6875 
L 10.890625 54.6875 
L 10.890625 58.5 
Q 10.890625 67.625 15.140625 71.796875 
Q 19.390625 75.984375 28.609375 75.984375 
z
" id="DejaVuSans-102"/>
       <path d="M 48.78125 52.59375 
L 48.78125 44.1875 
Q 44.96875 46.296875 41.140625 47.34375 
Q 37.3125 48.390625 33.40625 48.390625 
Q 24.65625 48.390625 19.8125 42.84375 
Q 14.984375 37.3125 14.984375 27.296875 
Q 14.984375 17.28125 19.8125 11.734375 
Q 24.65625 6.203125 33.40625 6.203125 
Q 37.3125 6.203125 41.140625 7.25 
Q 44.96875 8.296875 48.78125 10.40625 
L 48.78125 2.09375 
Q 45.015625 0.34375 40.984375 -0.53125 
Q 36.96875 -1.421875 32.421875 -1.421875 
Q 20.0625 -1.421875 12.78125 6.34375 
Q 5.515625 14.109375 5.515625 27.296875 
Q 5.515625 40.671875 12.859375 48.328125 
Q 20.21875 56 33.015625 56 
Q 37.15625 56 41.109375 55.140625 
Q 45.0625 54.296875 48.78125 52.59375 
z
" id="DejaVuSans-99"/>
       <path d="M 18.3125 70.21875 
L 18.3125 54.6875 
L 36.8125 54.6875 
L 36.8125 47.703125 
L 18.3125 47.703125 
L 18.3125 18.015625 
Q 18.3125 11.328125 20.140625 9.421875 
Q 21.96875 7.515625 27.59375 7.515625 
L 36.8125 7.515625 
L 36.8125 0 
L 27.59375 0 
Q 17.1875 0 13.234375 3.875 
Q 9.28125 7.765625 9.28125 18.015625 
L 9.28125 47.703125 
L 2.6875 47.703125 
L 2.6875 54.6875 
L 9.28125 54.6875 
L 9.28125 70.21875 
z
" id="DejaVuSans-116"/>
       <path d="M 9.421875 54.6875 
L 18.40625 54.6875 
L 18.40625 0 
L 9.421875 0 
z
M 9.421875 75.984375 
L 18.40625 75.984375 
L 18.40625 64.59375 
L 9.421875 64.59375 
z
" id="DejaVuSans-105"/>
       <path d="M 30.609375 48.390625 
Q 23.390625 48.390625 19.1875 42.75 
Q 14.984375 37.109375 14.984375 27.296875 
Q 14.984375 17.484375 19.15625 11.84375 
Q 23.34375 6.203125 30.609375 6.203125 
Q 37.796875 6.203125 41.984375 11.859375 
Q 46.1875 17.53125 46.1875 27.296875 
Q 46.1875 37.015625 41.984375 42.703125 
Q 37.796875 48.390625 30.609375 48.390625 
z
M 30.609375 56 
Q 42.328125 56 49.015625 48.375 
Q 55.71875 40.765625 55.71875 27.296875 
Q 55.71875 13.875 49.015625 6.21875 
Q 42.328125 -1.421875 30.609375 -1.421875 
Q 18.84375 -1.421875 12.171875 6.21875 
Q 5.515625 13.875 5.515625 27.296875 
Q 5.515625 40.765625 12.171875 48.375 
Q 18.84375 56 30.609375 56 
z
" id="DejaVuSans-111"/>
      </defs>
      <use xlink:href="#DejaVuSans-82"/>
      <use x="64.982422" xlink:href="#DejaVuSans-117"/>
      <use x="128.361328" xlink:href="#DejaVuSans-110"/>
      <use x="191.740234" xlink:href="#DejaVuSans-103"/>
      <use x="255.216797" xlink:href="#DejaVuSans-101"/>
      <use x="316.740234" xlink:href="#DejaVuSans-32"/>
      <use x="348.527344" xlink:href="#DejaVuSans-102"/>
      <use x="383.732422" xlink:href="#DejaVuSans-117"/>
      <use x="447.111328" xlink:href="#DejaVuSans-110"/>
      <use x="510.490234" xlink:href="#DejaVuSans-99"/>
      <use x="565.470703" xlink:href="#DejaVuSans-116"/>
      <use x="604.679688" xlink:href="#DejaVuSans-105"/>
      <use x="632.462891" xlink:href="#DejaVuSans-111"/>
      <use x="693.644531" xlink:href="#DejaVuSans-110"/>
     </g>
    </g>
    <g id="line2d_17">
     <path d="M 66.6 69.248563 
L 86.6 69.248563 
" style="fill:none;stroke:#ff7f0e;stroke-dasharray:9.6,2.4,1.5,2.4;stroke-dashoffset:0;stroke-width:1.5;"/>
    </g>
    <g id="line2d_18"/>
    <g id="text_13">
     <!-- NN Model -->
     <g transform="translate(94.6 72.748563)scale(0.1 -0.1)">
      <defs>
       <path d="M 9.8125 72.90625 
L 23.09375 72.90625 
L 55.421875 11.921875 
L 55.421875 72.90625 
L 64.984375 72.90625 
L 64.984375 0 
L 51.703125 0 
L 19.390625 60.984375 
L 19.390625 0 
L 9.8125 0 
z
" id="DejaVuSans-78"/>
       <path d="M 9.8125 72.90625 
L 24.515625 72.90625 
L 43.109375 23.296875 
L 61.8125 72.90625 
L 76.515625 72.90625 
L 76.515625 0 
L 66.890625 0 
L 66.890625 64.015625 
L 48.09375 14.015625 
L 38.1875 14.015625 
L 19.390625 64.015625 
L 19.390625 0 
L 9.8125 0 
z
" id="DejaVuSans-77"/>
       <path d="M 45.40625 46.390625 
L 45.40625 75.984375 
L 54.390625 75.984375 
L 54.390625 0 
L 45.40625 0 
L 45.40625 8.203125 
Q 42.578125 3.328125 38.25 0.953125 
Q 33.9375 -1.421875 27.875 -1.421875 
Q 17.96875 -1.421875 11.734375 6.484375 
Q 5.515625 14.40625 5.515625 27.296875 
Q 5.515625 40.1875 11.734375 48.09375 
Q 17.96875 56 27.875 56 
Q 33.9375 56 38.25 53.625 
Q 42.578125 51.265625 45.40625 46.390625 
z
M 14.796875 27.296875 
Q 14.796875 17.390625 18.875 11.75 
Q 22.953125 6.109375 30.078125 6.109375 
Q 37.203125 6.109375 41.296875 11.75 
Q 45.40625 17.390625 45.40625 27.296875 
Q 45.40625 37.203125 41.296875 42.84375 
Q 37.203125 48.484375 30.078125 48.484375 
Q 22.953125 48.484375 18.875 42.84375 
Q 14.796875 37.203125 14.796875 27.296875 
z
" id="DejaVuSans-100"/>
       <path d="M 9.421875 75.984375 
L 18.40625 75.984375 
L 18.40625 0 
L 9.421875 0 
z
" id="DejaVuSans-108"/>
      </defs>
      <use xlink:href="#DejaVuSans-78"/>
      <use x="74.804688" xlink:href="#DejaVuSans-78"/>
      <use x="149.609375" xlink:href="#DejaVuSans-32"/>
      <use x="181.396484" xlink:href="#DejaVuSans-77"/>
      <use x="267.675781" xlink:href="#DejaVuSans-111"/>
      <use x="328.857422" xlink:href="#DejaVuSans-100"/>
      <use x="392.333984" xlink:href="#DejaVuSans-101"/>
      <use x="453.857422" xlink:href="#DejaVuSans-108"/>
     </g>
    </g>
    <g id="line2d_19"/>
    <g id="line2d_20">
     <g>
      <use style="fill:#2ca02c;stroke:#2ca02c;" x="76.6" xlink:href="#m6c54a619ad" y="83.926688"/>
     </g>
    </g>
    <g id="text_14">
     <!-- Samples -->
     <g transform="translate(94.6 87.426688)scale(0.1 -0.1)">
      <defs>
       <path d="M 53.515625 70.515625 
L 53.515625 60.890625 
Q 47.90625 63.578125 42.921875 64.890625 
Q 37.9375 66.21875 33.296875 66.21875 
Q 25.25 66.21875 20.875 63.09375 
Q 16.5 59.96875 16.5 54.203125 
Q 16.5 49.359375 19.40625 46.890625 
Q 22.3125 44.4375 30.421875 42.921875 
L 36.375 41.703125 
Q 47.40625 39.59375 52.65625 34.296875 
Q 57.90625 29 57.90625 20.125 
Q 57.90625 9.515625 50.796875 4.046875 
Q 43.703125 -1.421875 29.984375 -1.421875 
Q 24.8125 -1.421875 18.96875 -0.25 
Q 13.140625 0.921875 6.890625 3.21875 
L 6.890625 13.375 
Q 12.890625 10.015625 18.65625 8.296875 
Q 24.421875 6.59375 29.984375 6.59375 
Q 38.421875 6.59375 43.015625 9.90625 
Q 47.609375 13.234375 47.609375 19.390625 
Q 47.609375 24.75 44.3125 27.78125 
Q 41.015625 30.8125 33.5 32.328125 
L 27.484375 33.5 
Q 16.453125 35.6875 11.515625 40.375 
Q 6.59375 45.0625 6.59375 53.421875 
Q 6.59375 63.09375 13.40625 68.65625 
Q 20.21875 74.21875 32.171875 74.21875 
Q 37.3125 74.21875 42.625 73.28125 
Q 47.953125 72.359375 53.515625 70.515625 
z
" id="DejaVuSans-83"/>
       <path d="M 34.28125 27.484375 
Q 23.390625 27.484375 19.1875 25 
Q 14.984375 22.515625 14.984375 16.5 
Q 14.984375 11.71875 18.140625 8.90625 
Q 21.296875 6.109375 26.703125 6.109375 
Q 34.1875 6.109375 38.703125 11.40625 
Q 43.21875 16.703125 43.21875 25.484375 
L 43.21875 27.484375 
z
M 52.203125 31.203125 
L 52.203125 0 
L 43.21875 0 
L 43.21875 8.296875 
Q 40.140625 3.328125 35.546875 0.953125 
Q 30.953125 -1.421875 24.3125 -1.421875 
Q 15.921875 -1.421875 10.953125 3.296875 
Q 6 8.015625 6 15.921875 
Q 6 25.140625 12.171875 29.828125 
Q 18.359375 34.515625 30.609375 34.515625 
L 43.21875 34.515625 
L 43.21875 35.40625 
Q 43.21875 41.609375 39.140625 45 
Q 35.0625 48.390625 27.6875 48.390625 
Q 23 48.390625 18.546875 47.265625 
Q 14.109375 46.140625 10.015625 43.890625 
L 10.015625 52.203125 
Q 14.9375 54.109375 19.578125 55.046875 
Q 24.21875 56 28.609375 56 
Q 40.484375 56 46.34375 49.84375 
Q 52.203125 43.703125 52.203125 31.203125 
z
" id="DejaVuSans-97"/>
       <path d="M 52 44.1875 
Q 55.375 50.25 60.0625 53.125 
Q 64.75 56 71.09375 56 
Q 79.640625 56 84.28125 50.015625 
Q 88.921875 44.046875 88.921875 33.015625 
L 88.921875 0 
L 79.890625 0 
L 79.890625 32.71875 
Q 79.890625 40.578125 77.09375 44.375 
Q 74.3125 48.1875 68.609375 48.1875 
Q 61.625 48.1875 57.5625 43.546875 
Q 53.515625 38.921875 53.515625 30.90625 
L 53.515625 0 
L 44.484375 0 
L 44.484375 32.71875 
Q 44.484375 40.625 41.703125 44.40625 
Q 38.921875 48.1875 33.109375 48.1875 
Q 26.21875 48.1875 22.15625 43.53125 
Q 18.109375 38.875 18.109375 30.90625 
L 18.109375 0 
L 9.078125 0 
L 9.078125 54.6875 
L 18.109375 54.6875 
L 18.109375 46.1875 
Q 21.1875 51.21875 25.484375 53.609375 
Q 29.78125 56 35.6875 56 
Q 41.65625 56 45.828125 52.96875 
Q 50 49.953125 52 44.1875 
z
" id="DejaVuSans-109"/>
       <path d="M 18.109375 8.203125 
L 18.109375 -20.796875 
L 9.078125 -20.796875 
L 9.078125 54.6875 
L 18.109375 54.6875 
L 18.109375 46.390625 
Q 20.953125 51.265625 25.265625 53.625 
Q 29.59375 56 35.59375 56 
Q 45.5625 56 51.78125 48.09375 
Q 58.015625 40.1875 58.015625 27.296875 
Q 58.015625 14.40625 51.78125 6.484375 
Q 45.5625 -1.421875 35.59375 -1.421875 
Q 29.59375 -1.421875 25.265625 0.953125 
Q 20.953125 3.328125 18.109375 8.203125 
z
M 48.6875 27.296875 
Q 48.6875 37.203125 44.609375 42.84375 
Q 40.53125 48.484375 33.40625 48.484375 
Q 26.265625 48.484375 22.1875 42.84375 
Q 18.109375 37.203125 18.109375 27.296875 
Q 18.109375 17.390625 22.1875 11.75 
Q 26.265625 6.109375 33.40625 6.109375 
Q 40.53125 6.109375 44.609375 11.75 
Q 48.6875 17.390625 48.6875 27.296875 
z
" id="DejaVuSans-112"/>
       <path d="M 44.28125 53.078125 
L 44.28125 44.578125 
Q 40.484375 46.53125 36.375 47.5 
Q 32.28125 48.484375 27.875 48.484375 
Q 21.1875 48.484375 17.84375 46.4375 
Q 14.5 44.390625 14.5 40.28125 
Q 14.5 37.15625 16.890625 35.375 
Q 19.28125 33.59375 26.515625 31.984375 
L 29.59375 31.296875 
Q 39.15625 29.25 43.1875 25.515625 
Q 47.21875 21.78125 47.21875 15.09375 
Q 47.21875 7.46875 41.1875 3.015625 
Q 35.15625 -1.421875 24.609375 -1.421875 
Q 20.21875 -1.421875 15.453125 -0.5625 
Q 10.6875 0.296875 5.421875 2 
L 5.421875 11.28125 
Q 10.40625 8.6875 15.234375 7.390625 
Q 20.0625 6.109375 24.8125 6.109375 
Q 31.15625 6.109375 34.5625 8.28125 
Q 37.984375 10.453125 37.984375 14.40625 
Q 37.984375 18.0625 35.515625 20.015625 
Q 33.0625 21.96875 24.703125 23.78125 
L 21.578125 24.515625 
Q 13.234375 26.265625 9.515625 29.90625 
Q 5.8125 33.546875 5.8125 39.890625 
Q 5.8125 47.609375 11.28125 51.796875 
Q 16.75 56 26.8125 56 
Q 31.78125 56 36.171875 55.265625 
Q 40.578125 54.546875 44.28125 53.078125 
z
" id="DejaVuSans-115"/>
      </defs>
      <use xlink:href="#DejaVuSans-83"/>
      <use x="63.476562" xlink:href="#DejaVuSans-97"/>
      <use x="124.755859" xlink:href="#DejaVuSans-109"/>
      <use x="222.167969" xlink:href="#DejaVuSans-112"/>
      <use x="285.644531" xlink:href="#DejaVuSans-108"/>
      <use x="313.427734" xlink:href="#DejaVuSans-101"/>
      <use x="374.951172" xlink:href="#DejaVuSans-115"/>
     </g>
    </g>
   </g>
  </g>
  <g id="text_15">
   <!-- Approximating the Runge function using a neural network with 48 -->
   <g transform="translate(32.25 16.030125)scale(0.12 -0.12)">
    <defs>
     <path d="M 34.1875 63.1875 
L 20.796875 26.90625 
L 47.609375 26.90625 
z
M 28.609375 72.90625 
L 39.796875 72.90625 
L 67.578125 0 
L 57.328125 0 
L 50.6875 18.703125 
L 17.828125 18.703125 
L 11.1875 0 
L 0.78125 0 
z
" id="DejaVuSans-65"/>
     <path d="M 41.109375 46.296875 
Q 39.59375 47.171875 37.8125 47.578125 
Q 36.03125 48 33.890625 48 
Q 26.265625 48 22.1875 43.046875 
Q 18.109375 38.09375 18.109375 28.8125 
L 18.109375 0 
L 9.078125 0 
L 9.078125 54.6875 
L 18.109375 54.6875 
L 18.109375 46.1875 
Q 20.953125 51.171875 25.484375 53.578125 
Q 30.03125 56 36.53125 56 
Q 37.453125 56 38.578125 55.875 
Q 39.703125 55.765625 41.0625 55.515625 
z
" id="DejaVuSans-114"/>
     <path d="M 54.890625 54.6875 
L 35.109375 28.078125 
L 55.90625 0 
L 45.3125 0 
L 29.390625 21.484375 
L 13.484375 0 
L 2.875 0 
L 24.125 28.609375 
L 4.6875 54.6875 
L 15.28125 54.6875 
L 29.78125 35.203125 
L 44.28125 54.6875 
z
" id="DejaVuSans-120"/>
     <path d="M 54.890625 33.015625 
L 54.890625 0 
L 45.90625 0 
L 45.90625 32.71875 
Q 45.90625 40.484375 42.875 44.328125 
Q 39.84375 48.1875 33.796875 48.1875 
Q 26.515625 48.1875 22.3125 43.546875 
Q 18.109375 38.921875 18.109375 30.90625 
L 18.109375 0 
L 9.078125 0 
L 9.078125 75.984375 
L 18.109375 75.984375 
L 18.109375 46.1875 
Q 21.34375 51.125 25.703125 53.5625 
Q 30.078125 56 35.796875 56 
Q 45.21875 56 50.046875 50.171875 
Q 54.890625 44.34375 54.890625 33.015625 
z
" id="DejaVuSans-104"/>
     <path d="M 4.203125 54.6875 
L 13.1875 54.6875 
L 24.421875 12.015625 
L 35.59375 54.6875 
L 46.1875 54.6875 
L 57.421875 12.015625 
L 68.609375 54.6875 
L 77.59375 54.6875 
L 63.28125 0 
L 52.6875 0 
L 40.921875 44.828125 
L 29.109375 0 
L 18.5 0 
z
" id="DejaVuSans-119"/>
     <path d="M 9.078125 75.984375 
L 18.109375 75.984375 
L 18.109375 31.109375 
L 44.921875 54.6875 
L 56.390625 54.6875 
L 27.390625 29.109375 
L 57.625 0 
L 45.90625 0 
L 18.109375 26.703125 
L 18.109375 0 
L 9.078125 0 
z
" id="DejaVuSans-107"/>
    </defs>
    <use xlink:href="#DejaVuSans-65"/>
    <use x="68.408203" xlink:href="#DejaVuSans-112"/>
    <use x="131.884766" xlink:href="#DejaVuSans-112"/>
    <use x="195.361328" xlink:href="#DejaVuSans-114"/>
    <use x="234.224609" xlink:href="#DejaVuSans-111"/>
    <use x="292.28125" xlink:href="#DejaVuSans-120"/>
    <use x="351.460938" xlink:href="#DejaVuSans-105"/>
    <use x="379.244141" xlink:href="#DejaVuSans-109"/>
    <use x="476.65625" xlink:href="#DejaVuSans-97"/>
    <use x="537.935547" xlink:href="#DejaVuSans-116"/>
    <use x="577.144531" xlink:href="#DejaVuSans-105"/>
    <use x="604.927734" xlink:href="#DejaVuSans-110"/>
    <use x="668.306641" xlink:href="#DejaVuSans-103"/>
    <use x="731.783203" xlink:href="#DejaVuSans-32"/>
    <use x="763.570312" xlink:href="#DejaVuSans-116"/>
    <use x="802.779297" xlink:href="#DejaVuSans-104"/>
    <use x="866.158203" xlink:href="#DejaVuSans-101"/>
    <use x="927.681641" xlink:href="#DejaVuSans-32"/>
    <use x="959.46875" xlink:href="#DejaVuSans-82"/>
    <use x="1024.451172" xlink:href="#DejaVuSans-117"/>
    <use x="1087.830078" xlink:href="#DejaVuSans-110"/>
    <use x="1151.208984" xlink:href="#DejaVuSans-103"/>
    <use x="1214.685547" xlink:href="#DejaVuSans-101"/>
    <use x="1276.208984" xlink:href="#DejaVuSans-32"/>
    <use x="1307.996094" xlink:href="#DejaVuSans-102"/>
    <use x="1343.201172" xlink:href="#DejaVuSans-117"/>
    <use x="1406.580078" xlink:href="#DejaVuSans-110"/>
    <use x="1469.958984" xlink:href="#DejaVuSans-99"/>
    <use x="1524.939453" xlink:href="#DejaVuSans-116"/>
    <use x="1564.148438" xlink:href="#DejaVuSans-105"/>
    <use x="1591.931641" xlink:href="#DejaVuSans-111"/>
    <use x="1653.113281" xlink:href="#DejaVuSans-110"/>
    <use x="1716.492188" xlink:href="#DejaVuSans-32"/>
    <use x="1748.279297" xlink:href="#DejaVuSans-117"/>
    <use x="1811.658203" xlink:href="#DejaVuSans-115"/>
    <use x="1863.757812" xlink:href="#DejaVuSans-105"/>
    <use x="1891.541016" xlink:href="#DejaVuSans-110"/>
    <use x="1954.919922" xlink:href="#DejaVuSans-103"/>
    <use x="2018.396484" xlink:href="#DejaVuSans-32"/>
    <use x="2050.183594" xlink:href="#DejaVuSans-97"/>
    <use x="2111.462891" xlink:href="#DejaVuSans-32"/>
    <use x="2143.25" xlink:href="#DejaVuSans-110"/>
    <use x="2206.628906" xlink:href="#DejaVuSans-101"/>
    <use x="2268.152344" xlink:href="#DejaVuSans-117"/>
    <use x="2331.53125" xlink:href="#DejaVuSans-114"/>
    <use x="2372.644531" xlink:href="#DejaVuSans-97"/>
    <use x="2433.923828" xlink:href="#DejaVuSans-108"/>
    <use x="2461.707031" xlink:href="#DejaVuSans-32"/>
    <use x="2493.494141" xlink:href="#DejaVuSans-110"/>
    <use x="2556.873047" xlink:href="#DejaVuSans-101"/>
    <use x="2618.396484" xlink:href="#DejaVuSans-116"/>
    <use x="2657.605469" xlink:href="#DejaVuSans-119"/>
    <use x="2739.392578" xlink:href="#DejaVuSans-111"/>
    <use x="2800.574219" xlink:href="#DejaVuSans-114"/>
    <use x="2841.6875" xlink:href="#DejaVuSans-107"/>
    <use x="2899.597656" xlink:href="#DejaVuSans-32"/>
    <use x="2931.384766" xlink:href="#DejaVuSans-119"/>
    <use x="3013.171875" xlink:href="#DejaVuSans-105"/>
    <use x="3040.955078" xlink:href="#DejaVuSans-116"/>
    <use x="3080.164062" xlink:href="#DejaVuSans-104"/>
    <use x="3143.542969" xlink:href="#DejaVuSans-32"/>
    <use x="3175.330078" xlink:href="#DejaVuSans-52"/>
    <use x="3238.953125" xlink:href="#DejaVuSans-56"/>
   </g>
   <!-- neurons trained with 11 evenly spaced points to a loss of 1e-10 -->
   <g transform="translate(39.190313 29.4675)scale(0.12 -0.12)">
    <defs>
     <path d="M 2.984375 54.6875 
L 12.5 54.6875 
L 29.59375 8.796875 
L 46.6875 54.6875 
L 56.203125 54.6875 
L 35.6875 0 
L 23.484375 0 
z
" id="DejaVuSans-118"/>
     <path d="M 32.171875 -5.078125 
Q 28.375 -14.84375 24.75 -17.8125 
Q 21.140625 -20.796875 15.09375 -20.796875 
L 7.90625 -20.796875 
L 7.90625 -13.28125 
L 13.1875 -13.28125 
Q 16.890625 -13.28125 18.9375 -11.515625 
Q 21 -9.765625 23.484375 -3.21875 
L 25.09375 0.875 
L 2.984375 54.6875 
L 12.5 54.6875 
L 29.59375 11.921875 
L 46.6875 54.6875 
L 56.203125 54.6875 
z
" id="DejaVuSans-121"/>
     <path d="M 4.890625 31.390625 
L 31.203125 31.390625 
L 31.203125 23.390625 
L 4.890625 23.390625 
z
" id="DejaVuSans-45"/>
    </defs>
    <use xlink:href="#DejaVuSans-110"/>
    <use x="63.378906" xlink:href="#DejaVuSans-101"/>
    <use x="124.902344" xlink:href="#DejaVuSans-117"/>
    <use x="188.28125" xlink:href="#DejaVuSans-114"/>
    <use x="227.144531" xlink:href="#DejaVuSans-111"/>
    <use x="288.326172" xlink:href="#DejaVuSans-110"/>
    <use x="351.705078" xlink:href="#DejaVuSans-115"/>
    <use x="403.804688" xlink:href="#DejaVuSans-32"/>
    <use x="435.591797" xlink:href="#DejaVuSans-116"/>
    <use x="474.800781" xlink:href="#DejaVuSans-114"/>
    <use x="515.914062" xlink:href="#DejaVuSans-97"/>
    <use x="577.193359" xlink:href="#DejaVuSans-105"/>
    <use x="604.976562" xlink:href="#DejaVuSans-110"/>
    <use x="668.355469" xlink:href="#DejaVuSans-101"/>
    <use x="729.878906" xlink:href="#DejaVuSans-100"/>
    <use x="793.355469" xlink:href="#DejaVuSans-32"/>
    <use x="825.142578" xlink:href="#DejaVuSans-119"/>
    <use x="906.929688" xlink:href="#DejaVuSans-105"/>
    <use x="934.712891" xlink:href="#DejaVuSans-116"/>
    <use x="973.921875" xlink:href="#DejaVuSans-104"/>
    <use x="1037.300781" xlink:href="#DejaVuSans-32"/>
    <use x="1069.087891" xlink:href="#DejaVuSans-49"/>
    <use x="1132.710938" xlink:href="#DejaVuSans-49"/>
    <use x="1196.333984" xlink:href="#DejaVuSans-32"/>
    <use x="1228.121094" xlink:href="#DejaVuSans-101"/>
    <use x="1289.644531" xlink:href="#DejaVuSans-118"/>
    <use x="1348.824219" xlink:href="#DejaVuSans-101"/>
    <use x="1410.347656" xlink:href="#DejaVuSans-110"/>
    <use x="1473.726562" xlink:href="#DejaVuSans-108"/>
    <use x="1501.509766" xlink:href="#DejaVuSans-121"/>
    <use x="1560.689453" xlink:href="#DejaVuSans-32"/>
    <use x="1592.476562" xlink:href="#DejaVuSans-115"/>
    <use x="1644.576172" xlink:href="#DejaVuSans-112"/>
    <use x="1708.052734" xlink:href="#DejaVuSans-97"/>
    <use x="1769.332031" xlink:href="#DejaVuSans-99"/>
    <use x="1824.3125" xlink:href="#DejaVuSans-101"/>
    <use x="1885.835938" xlink:href="#DejaVuSans-100"/>
    <use x="1949.3125" xlink:href="#DejaVuSans-32"/>
    <use x="1981.099609" xlink:href="#DejaVuSans-112"/>
    <use x="2044.576172" xlink:href="#DejaVuSans-111"/>
    <use x="2105.757812" xlink:href="#DejaVuSans-105"/>
    <use x="2133.541016" xlink:href="#DejaVuSans-110"/>
    <use x="2196.919922" xlink:href="#DejaVuSans-116"/>
    <use x="2236.128906" xlink:href="#DejaVuSans-115"/>
    <use x="2288.228516" xlink:href="#DejaVuSans-32"/>
    <use x="2320.015625" xlink:href="#DejaVuSans-116"/>
    <use x="2359.224609" xlink:href="#DejaVuSans-111"/>
    <use x="2420.40625" xlink:href="#DejaVuSans-32"/>
    <use x="2452.193359" xlink:href="#DejaVuSans-97"/>
    <use x="2513.472656" xlink:href="#DejaVuSans-32"/>
    <use x="2545.259766" xlink:href="#DejaVuSans-108"/>
    <use x="2573.042969" xlink:href="#DejaVuSans-111"/>
    <use x="2634.224609" xlink:href="#DejaVuSans-115"/>
    <use x="2686.324219" xlink:href="#DejaVuSans-115"/>
    <use x="2738.423828" xlink:href="#DejaVuSans-32"/>
    <use x="2770.210938" xlink:href="#DejaVuSans-111"/>
    <use x="2831.392578" xlink:href="#DejaVuSans-102"/>
    <use x="2866.597656" xlink:href="#DejaVuSans-32"/>
    <use x="2898.384766" xlink:href="#DejaVuSans-49"/>
    <use x="2962.007812" xlink:href="#DejaVuSans-101"/>
    <use x="3023.53125" xlink:href="#DejaVuSans-45"/>
    <use x="3059.615234" xlink:href="#DejaVuSans-49"/>
    <use x="3123.238281" xlink:href="#DejaVuSans-48"/>
   </g>
  </g>
 </g>
 <defs>
  <clipPath id="p1e5608de7e">
   <rect height="266.112" width="357.12" x="57.6" y="41.472"/>
  </clipPath>
 </defs>
</svg>
