<?xml version="1.0" encoding="utf-8" standalone="no"?>
<!DOCTYPE svg PUBLIC "-//W3C//DTD SVG 1.1//EN"
  "http://www.w3.org/Graphics/SVG/1.1/DTD/svg11.dtd">
<!-- Created with matplotlib (https://matplotlib.org/) -->
<svg height="345.6pt" version="1.1" viewBox="0 0 460.8 345.6" width="460.8pt" xmlns="http://www.w3.org/2000/svg" xmlns:xlink="http://www.w3.org/1999/xlink">
 <metadata>
  <rdf:RDF xmlns:cc="http://creativecommons.org/ns#" xmlns:dc="http://purl.org/dc/elements/1.1/" xmlns:rdf="http://www.w3.org/1999/02/22-rdf-syntax-ns#">
   <cc:Work>
    <dc:type rdf:resource="http://purl.org/dc/dcmitype/StillImage"/>
    <dc:date>2021-01-03T15:21:37.422776</dc:date>
    <dc:format>image/svg+xml</dc:format>
    <dc:creator>
     <cc:Agent>
      <dc:title>Matplotlib v3.3.3, https://matplotlib.org/</dc:title>
     </cc:Agent>
    </dc:creator>
   </cc:Work>
  </rdf:RDF>
 </metadata>
 <defs>
  <style type="text/css">*{stroke-linecap:butt;stroke-linejoin:round;}</style>
 </defs>
 <g id="figure_1">
  <g id="patch_1">
   <path d="M 0 345.6 
L 460.8 345.6 
L 460.8 0 
L 0 0 
z
" style="fill:#ffffff;"/>
  </g>
  <g id="axes_1">
   <g id="patch_2">
    <path d="M 57.6 307.584 
L 414.72 307.584 
L 414.72 41.472 
L 57.6 41.472 
z
" style="fill:#ffffff;"/>
   </g>
   <g id="matplotlib.axis_1">
    <g id="xtick_1">
     <g id="line2d_1">
      <defs>
       <path d="M 0 0 
L 0 3.5 
" id="m8307358aa3" style="stroke:#000000;stroke-width:0.8;"/>
      </defs>
      <g>
       <use style="stroke:#000000;stroke-width:0.8;" x="106.298182" xlink:href="#m8307358aa3" y="307.584"/>
      </g>
     </g>
     <g id="text_1">
      <!-- −1.0 -->
      <g transform="translate(94.156776 322.182437)scale(0.1 -0.1)">
       <defs>
        <path d="M 10.59375 35.5 
L 73.1875 35.5 
L 73.1875 27.203125 
L 10.59375 27.203125 
z
" id="DejaVuSans-8722"/>
        <path d="M 12.40625 8.296875 
L 28.515625 8.296875 
L 28.515625 63.921875 
L 10.984375 60.40625 
L 10.984375 69.390625 
L 28.421875 72.90625 
L 38.28125 72.90625 
L 38.28125 8.296875 
L 54.390625 8.296875 
L 54.390625 0 
L 12.40625 0 
z
" id="DejaVuSans-49"/>
        <path d="M 10.6875 12.40625 
L 21 12.40625 
L 21 0 
L 10.6875 0 
z
" id="DejaVuSans-46"/>
        <path d="M 31.78125 66.40625 
Q 24.171875 66.40625 20.328125 58.90625 
Q 16.5 51.421875 16.5 36.375 
Q 16.5 21.390625 20.328125 13.890625 
Q 24.171875 6.390625 31.78125 6.390625 
Q 39.453125 6.390625 43.28125 13.890625 
Q 47.125 21.390625 47.125 36.375 
Q 47.125 51.421875 43.28125 58.90625 
Q 39.453125 66.40625 31.78125 66.40625 
z
M 31.78125 74.21875 
Q 44.046875 74.21875 50.515625 64.515625 
Q 56.984375 54.828125 56.984375 36.375 
Q 56.984375 17.96875 50.515625 8.265625 
Q 44.046875 -1.421875 31.78125 -1.421875 
Q 19.53125 -1.421875 13.0625 8.265625 
Q 6.59375 17.96875 6.59375 36.375 
Q 6.59375 54.828125 13.0625 64.515625 
Q 19.53125 74.21875 31.78125 74.21875 
z
" id="DejaVuSans-48"/>
       </defs>
       <use xlink:href="#DejaVuSans-8722"/>
       <use x="83.789062" xlink:href="#DejaVuSans-49"/>
       <use x="147.412109" xlink:href="#DejaVuSans-46"/>
       <use x="179.199219" xlink:href="#DejaVuSans-48"/>
      </g>
     </g>
    </g>
    <g id="xtick_2">
     <g id="line2d_2">
      <g>
       <use style="stroke:#000000;stroke-width:0.8;" x="171.229091" xlink:href="#m8307358aa3" y="307.584"/>
      </g>
     </g>
     <g id="text_2">
      <!-- −0.5 -->
      <g transform="translate(159.087685 322.182437)scale(0.1 -0.1)">
       <defs>
        <path d="M 10.796875 72.90625 
L 49.515625 72.90625 
L 49.515625 64.59375 
L 19.828125 64.59375 
L 19.828125 46.734375 
Q 21.96875 47.46875 24.109375 47.828125 
Q 26.265625 48.1875 28.421875 48.1875 
Q 40.625 48.1875 47.75 41.5 
Q 54.890625 34.8125 54.890625 23.390625 
Q 54.890625 11.625 47.5625 5.09375 
Q 40.234375 -1.421875 26.90625 -1.421875 
Q 22.3125 -1.421875 17.546875 -0.640625 
Q 12.796875 0.140625 7.71875 1.703125 
L 7.71875 11.625 
Q 12.109375 9.234375 16.796875 8.0625 
Q 21.484375 6.890625 26.703125 6.890625 
Q 35.15625 6.890625 40.078125 11.328125 
Q 45.015625 15.765625 45.015625 23.390625 
Q 45.015625 31 40.078125 35.4375 
Q 35.15625 39.890625 26.703125 39.890625 
Q 22.75 39.890625 18.8125 39.015625 
Q 14.890625 38.140625 10.796875 36.28125 
z
" id="DejaVuSans-53"/>
       </defs>
       <use xlink:href="#DejaVuSans-8722"/>
       <use x="83.789062" xlink:href="#DejaVuSans-48"/>
       <use x="147.412109" xlink:href="#DejaVuSans-46"/>
       <use x="179.199219" xlink:href="#DejaVuSans-53"/>
      </g>
     </g>
    </g>
    <g id="xtick_3">
     <g id="line2d_3">
      <g>
       <use style="stroke:#000000;stroke-width:0.8;" x="236.16" xlink:href="#m8307358aa3" y="307.584"/>
      </g>
     </g>
     <g id="text_3">
      <!-- 0.0 -->
      <g transform="translate(228.208438 322.182437)scale(0.1 -0.1)">
       <use xlink:href="#DejaVuSans-48"/>
       <use x="63.623047" xlink:href="#DejaVuSans-46"/>
       <use x="95.410156" xlink:href="#DejaVuSans-48"/>
      </g>
     </g>
    </g>
    <g id="xtick_4">
     <g id="line2d_4">
      <g>
       <use style="stroke:#000000;stroke-width:0.8;" x="301.090909" xlink:href="#m8307358aa3" y="307.584"/>
      </g>
     </g>
     <g id="text_4">
      <!-- 0.5 -->
      <g transform="translate(293.139347 322.182437)scale(0.1 -0.1)">
       <use xlink:href="#DejaVuSans-48"/>
       <use x="63.623047" xlink:href="#DejaVuSans-46"/>
       <use x="95.410156" xlink:href="#DejaVuSans-53"/>
      </g>
     </g>
    </g>
    <g id="xtick_5">
     <g id="line2d_5">
      <g>
       <use style="stroke:#000000;stroke-width:0.8;" x="366.021818" xlink:href="#m8307358aa3" y="307.584"/>
      </g>
     </g>
     <g id="text_5">
      <!-- 1.0 -->
      <g transform="translate(358.070256 322.182437)scale(0.1 -0.1)">
       <use xlink:href="#DejaVuSans-49"/>
       <use x="63.623047" xlink:href="#DejaVuSans-46"/>
       <use x="95.410156" xlink:href="#DejaVuSans-48"/>
      </g>
     </g>
    </g>
   </g>
   <g id="matplotlib.axis_2">
    <g id="ytick_1">
     <g id="line2d_6">
      <defs>
       <path d="M 0 0 
L -3.5 0 
" id="m8722619bff" style="stroke:#000000;stroke-width:0.8;"/>
      </defs>
      <g>
       <use style="stroke:#000000;stroke-width:0.8;" x="57.6" xlink:href="#m8722619bff" y="295.488"/>
      </g>
     </g>
     <g id="text_6">
      <!-- −1.00 -->
      <g transform="translate(19.954687 299.287219)scale(0.1 -0.1)">
       <use xlink:href="#DejaVuSans-8722"/>
       <use x="83.789062" xlink:href="#DejaVuSans-49"/>
       <use x="147.412109" xlink:href="#DejaVuSans-46"/>
       <use x="179.199219" xlink:href="#DejaVuSans-48"/>
       <use x="242.822266" xlink:href="#DejaVuSans-48"/>
      </g>
     </g>
    </g>
    <g id="ytick_2">
     <g id="line2d_7">
      <g>
       <use style="stroke:#000000;stroke-width:0.8;" x="57.6" xlink:href="#m8722619bff" y="265.248"/>
      </g>
     </g>
     <g id="text_7">
      <!-- −0.75 -->
      <g transform="translate(19.954687 269.047219)scale(0.1 -0.1)">
       <defs>
        <path d="M 8.203125 72.90625 
L 55.078125 72.90625 
L 55.078125 68.703125 
L 28.609375 0 
L 18.3125 0 
L 43.21875 64.59375 
L 8.203125 64.59375 
z
" id="DejaVuSans-55"/>
       </defs>
       <use xlink:href="#DejaVuSans-8722"/>
       <use x="83.789062" xlink:href="#DejaVuSans-48"/>
       <use x="147.412109" xlink:href="#DejaVuSans-46"/>
       <use x="179.199219" xlink:href="#DejaVuSans-55"/>
       <use x="242.822266" xlink:href="#DejaVuSans-53"/>
      </g>
     </g>
    </g>
    <g id="ytick_3">
     <g id="line2d_8">
      <g>
       <use style="stroke:#000000;stroke-width:0.8;" x="57.6" xlink:href="#m8722619bff" y="235.008"/>
      </g>
     </g>
     <g id="text_8">
      <!-- −0.50 -->
      <g transform="translate(19.954687 238.807219)scale(0.1 -0.1)">
       <use xlink:href="#DejaVuSans-8722"/>
       <use x="83.789062" xlink:href="#DejaVuSans-48"/>
       <use x="147.412109" xlink:href="#DejaVuSans-46"/>
       <use x="179.199219" xlink:href="#DejaVuSans-53"/>
       <use x="242.822266" xlink:href="#DejaVuSans-48"/>
      </g>
     </g>
    </g>
    <g id="ytick_4">
     <g id="line2d_9">
      <g>
       <use style="stroke:#000000;stroke-width:0.8;" x="57.6" xlink:href="#m8722619bff" y="204.768"/>
      </g>
     </g>
     <g id="text_9">
      <!-- −0.25 -->
      <g transform="translate(19.954687 208.567219)scale(0.1 -0.1)">
       <defs>
        <path d="M 19.1875 8.296875 
L 53.609375 8.296875 
L 53.609375 0 
L 7.328125 0 
L 7.328125 8.296875 
Q 12.9375 14.109375 22.625 23.890625 
Q 32.328125 33.6875 34.8125 36.53125 
Q 39.546875 41.84375 41.421875 45.53125 
Q 43.3125 49.21875 43.3125 52.78125 
Q 43.3125 58.59375 39.234375 62.25 
Q 35.15625 65.921875 28.609375 65.921875 
Q 23.96875 65.921875 18.8125 64.3125 
Q 13.671875 62.703125 7.8125 59.421875 
L 7.8125 69.390625 
Q 13.765625 71.78125 18.9375 73 
Q 24.125 74.21875 28.421875 74.21875 
Q 39.75 74.21875 46.484375 68.546875 
Q 53.21875 62.890625 53.21875 53.421875 
Q 53.21875 48.921875 51.53125 44.890625 
Q 49.859375 40.875 45.40625 35.40625 
Q 44.1875 33.984375 37.640625 27.21875 
Q 31.109375 20.453125 19.1875 8.296875 
z
" id="DejaVuSans-50"/>
       </defs>
       <use xlink:href="#DejaVuSans-8722"/>
       <use x="83.789062" xlink:href="#DejaVuSans-48"/>
       <use x="147.412109" xlink:href="#DejaVuSans-46"/>
       <use x="179.199219" xlink:href="#DejaVuSans-50"/>
       <use x="242.822266" xlink:href="#DejaVuSans-53"/>
      </g>
     </g>
    </g>
    <g id="ytick_5">
     <g id="line2d_10">
      <g>
       <use style="stroke:#000000;stroke-width:0.8;" x="57.6" xlink:href="#m8722619bff" y="174.528"/>
      </g>
     </g>
     <g id="text_10">
      <!-- 0.00 -->
      <g transform="translate(28.334375 178.327219)scale(0.1 -0.1)">
       <use xlink:href="#DejaVuSans-48"/>
       <use x="63.623047" xlink:href="#DejaVuSans-46"/>
       <use x="95.410156" xlink:href="#DejaVuSans-48"/>
       <use x="159.033203" xlink:href="#DejaVuSans-48"/>
      </g>
     </g>
    </g>
    <g id="ytick_6">
     <g id="line2d_11">
      <g>
       <use style="stroke:#000000;stroke-width:0.8;" x="57.6" xlink:href="#m8722619bff" y="144.288"/>
      </g>
     </g>
     <g id="text_11">
      <!-- 0.25 -->
      <g transform="translate(28.334375 148.087219)scale(0.1 -0.1)">
       <use xlink:href="#DejaVuSans-48"/>
       <use x="63.623047" xlink:href="#DejaVuSans-46"/>
       <use x="95.410156" xlink:href="#DejaVuSans-50"/>
       <use x="159.033203" xlink:href="#DejaVuSans-53"/>
      </g>
     </g>
    </g>
    <g id="ytick_7">
     <g id="line2d_12">
      <g>
       <use style="stroke:#000000;stroke-width:0.8;" x="57.6" xlink:href="#m8722619bff" y="114.048"/>
      </g>
     </g>
     <g id="text_12">
      <!-- 0.50 -->
      <g transform="translate(28.334375 117.847219)scale(0.1 -0.1)">
       <use xlink:href="#DejaVuSans-48"/>
       <use x="63.623047" xlink:href="#DejaVuSans-46"/>
       <use x="95.410156" xlink:href="#DejaVuSans-53"/>
       <use x="159.033203" xlink:href="#DejaVuSans-48"/>
      </g>
     </g>
    </g>
    <g id="ytick_8">
     <g id="line2d_13">
      <g>
       <use style="stroke:#000000;stroke-width:0.8;" x="57.6" xlink:href="#m8722619bff" y="83.808"/>
      </g>
     </g>
     <g id="text_13">
      <!-- 0.75 -->
      <g transform="translate(28.334375 87.607219)scale(0.1 -0.1)">
       <use xlink:href="#DejaVuSans-48"/>
       <use x="63.623047" xlink:href="#DejaVuSans-46"/>
       <use x="95.410156" xlink:href="#DejaVuSans-55"/>
       <use x="159.033203" xlink:href="#DejaVuSans-53"/>
      </g>
     </g>
    </g>
    <g id="ytick_9">
     <g id="line2d_14">
      <g>
       <use style="stroke:#000000;stroke-width:0.8;" x="57.6" xlink:href="#m8722619bff" y="53.568"/>
      </g>
     </g>
     <g id="text_14">
      <!-- 1.00 -->
      <g transform="translate(28.334375 57.367219)scale(0.1 -0.1)">
       <use xlink:href="#DejaVuSans-49"/>
       <use x="63.623047" xlink:href="#DejaVuSans-46"/>
       <use x="95.410156" xlink:href="#DejaVuSans-48"/>
       <use x="159.033203" xlink:href="#DejaVuSans-48"/>
      </g>
     </g>
    </g>
   </g>
   <g id="line2d_15">
    <path clip-path="url(#pbeda480ee7)" d="M 73.832727 88.996364 
L 77.082523 95.977996 
L 80.657297 104.21651 
L 84.557052 113.8011 
L 88.781785 124.791095 
L 93.656478 138.109282 
L 99.831089 155.680832 
L 121.279738 217.414167 
L 126.154431 230.423284 
L 130.379165 241.076038 
L 134.278919 250.295313 
L 137.853694 258.156244 
L 141.103489 264.761601 
L 144.028305 270.230909 
L 146.95312 275.221281 
L 149.552957 279.234852 
L 152.152793 282.834365 
L 154.427649 285.633052 
L 156.702506 288.095328 
L 158.977363 290.213739 
L 160.92724 291.75094 
L 162.877117 293.027356 
L 164.826994 294.040146 
L 166.776871 294.787058 
L 168.726749 295.266431 
L 170.676626 295.477197 
L 172.301523 295.447293 
L 173.926421 295.230568 
L 175.876298 294.724384 
L 177.826175 293.950799 
L 179.776052 292.911535 
L 181.72593 291.608903 
L 183.675807 290.045802 
L 185.625684 288.225709 
L 187.900541 285.782891 
L 190.175397 283.00321 
L 192.450254 279.895081 
L 195.05009 275.952869 
L 197.649926 271.609579 
L 200.574742 266.265408 
L 203.499558 260.462145 
L 206.749353 253.511031 
L 210.324128 245.30299 
L 214.223882 235.747687 
L 218.448616 224.784464 
L 223.323309 211.490417 
L 229.49792 193.938569 
L 251.596527 130.399587 
L 256.47122 117.45544 
L 260.695954 106.872259 
L 264.595708 97.727485 
L 268.170483 89.942936 
L 271.420278 83.41324 
L 274.345094 78.016694 
L 277.26991 73.103131 
L 279.869746 69.160919 
L 282.469582 65.635377 
L 284.744439 62.903327 
L 287.019296 60.50926 
L 289.294152 58.460426 
L 291.244029 56.98379 
L 293.193907 55.768654 
L 295.143784 54.817722 
L 297.093661 54.133109 
L 299.043538 53.716338 
L 300.993415 53.568336 
L 302.618313 53.650567 
L 304.24321 53.919555 
L 306.193088 54.488256 
L 308.142965 55.324008 
L 310.092842 56.424953 
L 312.042719 57.788641 
L 313.992596 59.412039 
L 316.267453 61.629398 
L 318.54231 64.188597 
L 320.817166 67.081888 
L 323.417002 70.786315 
L 326.016839 74.900983 
L 328.616675 79.409621 
L 331.541491 84.930497 
L 334.791286 91.589408 
L 338.041081 98.760687 
L 341.615856 107.187916 
L 345.51561 116.953002 
L 350.065324 128.986433 
L 355.264996 143.405 
L 362.089566 163.038627 
L 378.013563 209.128607 
L 383.213235 223.396519 
L 387.762948 235.2549 
L 391.662703 244.83949 
L 395.237477 253.078004 
L 398.487273 260.059636 
L 398.487273 260.059636 
" style="fill:none;stroke:#1f77b4;stroke-linecap:square;stroke-width:1.5;"/>
   </g>
   <g id="line2d_16">
    <path clip-path="url(#pbeda480ee7)" d="M 73.832727 88.889497 
L 77.082523 95.905699 
L 80.657297 104.170666 
L 84.557052 113.774229 
L 88.781785 124.776862 
L 93.656478 138.103129 
L 99.831089 155.679273 
L 121.279738 217.414293 
L 126.154431 230.423325 
L 130.379165 241.076034 
L 134.278919 250.295291 
L 137.853694 258.156217 
L 141.103489 264.761578 
L 144.028305 270.230891 
L 146.95312 275.22127 
L 149.552957 279.234846 
L 152.152793 282.834364 
L 154.427649 285.633053 
L 156.702506 288.095331 
L 158.977363 290.213743 
L 160.92724 291.750945 
L 162.877117 293.027361 
L 164.826994 294.040151 
L 166.776871 294.787062 
L 168.726749 295.266434 
L 170.676626 295.477199 
L 172.301523 295.447295 
L 173.926421 295.230569 
L 175.876298 294.724384 
L 177.826175 293.950799 
L 179.776052 292.911534 
L 181.72593 291.608902 
L 183.675807 290.045801 
L 185.625684 288.225708 
L 187.900541 285.78289 
L 190.175397 283.003209 
L 192.450254 279.89508 
L 195.05009 275.952869 
L 197.649926 271.609579 
L 200.574742 266.265408 
L 203.499558 260.462145 
L 206.749353 253.511032 
L 210.324128 245.302991 
L 214.223882 235.747687 
L 218.448616 224.784464 
L 223.323309 211.490417 
L 229.49792 193.938569 
L 251.596527 130.399587 
L 256.47122 117.45544 
L 260.695954 106.872259 
L 264.595708 97.727484 
L 268.170483 89.942936 
L 271.420278 83.41324 
L 274.345094 78.016695 
L 277.26991 73.103131 
L 279.869746 69.16092 
L 282.469582 65.635378 
L 284.744439 62.903328 
L 287.019296 60.509261 
L 289.294152 58.460427 
L 291.244029 56.983791 
L 293.193907 55.768655 
L 295.143784 54.817722 
L 297.093661 54.133109 
L 299.043538 53.716337 
L 300.993415 53.568334 
L 302.618313 53.650564 
L 304.24321 53.919552 
L 306.193088 54.488251 
L 308.142965 55.324003 
L 310.092842 56.424948 
L 312.042719 57.788636 
L 313.992596 59.412035 
L 316.267453 61.629395 
L 318.54231 64.188597 
L 320.817166 67.081891 
L 323.417002 70.786323 
L 326.016839 74.900996 
L 328.616675 79.409639 
L 331.541491 84.930521 
L 334.791286 91.589435 
L 338.041081 98.760709 
L 341.615856 107.187921 
L 345.51561 116.952969 
L 350.065324 128.986327 
L 355.264996 143.404785 
L 362.089566 163.038387 
L 378.013563 209.134043 
L 383.213235 223.410033 
L 387.762948 235.281771 
L 391.662703 244.885334 
L 395.237477 253.150301 
L 398.487273 260.166503 
L 398.487273 260.166503 
" style="fill:none;stroke:#ff7f0e;stroke-dasharray:5.55,2.4;stroke-dashoffset:0;stroke-width:1.5;"/>
   </g>
   <g id="line2d_17">
    <path clip-path="url(#pbeda480ee7)" d="M 73.832727 68.95531 
L 85.85697 108.255607 
L 100.156076 154.843057 
L 107.305614 177.390397 
L 113.15525 195.149926 
L 118.354919 210.243105 
L 122.90463 222.796655 
L 127.129369 233.818617 
L 131.029121 243.38109 
L 134.603893 251.578319 
L 137.853686 258.519201 
L 141.103488 264.93971 
L 144.028302 270.247318 
L 146.953116 275.086347 
L 149.55295 278.977955 
L 152.152793 282.469852 
L 154.427648 285.187823 
L 156.702503 287.58268 
L 158.977359 289.647792 
L 160.927234 291.150771 
L 162.87711 292.403369 
L 164.826994 293.402759 
L 166.77687 294.146232 
L 168.726746 294.63194 
L 170.676622 294.858385 
L 172.626498 294.824181 
L 174.576374 294.528984 
L 176.526254 293.972851 
L 178.47613 293.156127 
L 180.426006 292.080025 
L 182.375882 290.746158 
L 184.325762 289.156604 
L 186.600617 286.982769 
L 188.875472 284.470133 
L 191.150332 281.624982 
L 193.750166 277.976142 
L 196.350005 273.915595 
L 198.949839 269.458107 
L 201.874653 263.98923 
L 204.799471 258.06412 
L 208.049265 250.98008 
L 211.624041 242.628389 
L 215.523793 232.919125 
L 219.748528 221.793515 
L 224.623221 208.32069 
L 230.797832 190.56468 
L 250.621595 132.990105 
L 255.496288 119.795231 
L 259.721021 108.981487 
L 263.620775 99.618812 
L 267.195549 91.633868 
L 270.445343 84.923872 
L 273.370161 79.368017 
L 276.294975 74.298505 
L 278.894809 70.221145 
L 281.494648 66.56374 
L 283.769503 63.718992 
L 286.044362 61.214546 
L 288.319218 59.057294 
L 290.269093 57.489283 
L 292.218973 56.183534 
L 294.168849 55.142846 
L 296.118725 54.368689 
L 298.068601 53.862447 
L 300.018481 53.624409 
L 301.643378 53.630927 
L 303.593254 53.884307 
L 305.54313 54.404219 
L 307.493006 55.188816 
L 309.442882 56.236137 
L 311.392766 57.54301 
L 313.342641 59.106032 
L 315.617497 61.248259 
L 317.892352 63.726692 
L 320.167207 66.533257 
L 322.767042 70.131167 
L 325.366884 74.131555 
L 327.966719 78.518676 
L 330.891533 83.895613 
L 334.141326 90.387066 
L 337.391127 97.386838 
L 340.9659 105.626172 
L 344.865652 115.196835 
L 349.090383 126.166483 
L 353.965081 139.478271 
L 359.48973 155.230424 
L 366.96427 177.290614 
L 387.437975 238.138024 
L 393.287603 254.644032 
L 398.487273 268.683027 
L 398.487273 268.683027 
" style="fill:none;stroke:#2ca02c;stroke-dasharray:9.6,2.4,1.5,2.4;stroke-dashoffset:0;stroke-width:1.5;"/>
   </g>
   <g id="line2d_18">
    <defs>
     <path d="M 0 1.5 
C 0.397805 1.5 0.77937 1.341951 1.06066 1.06066 
C 1.341951 0.77937 1.5 0.397805 1.5 0 
C 1.5 -0.397805 1.341951 -0.77937 1.06066 -1.06066 
C 0.77937 -1.341951 0.397805 -1.5 0 -1.5 
C -0.397805 -1.5 -0.77937 -1.341951 -1.06066 -1.06066 
C -1.341951 -0.77937 -1.5 -0.397805 -1.5 0 
C -1.5 0.397805 -1.341951 0.77937 -1.06066 1.06066 
C -0.77937 1.341951 -0.397805 1.5 0 1.5 
z
" id="ma06ba4d187" style="stroke:#d62728;"/>
    </defs>
    <g clip-path="url(#pbeda480ee7)">
     <use style="fill:#d62728;stroke:#d62728;" x="106.298182" xlink:href="#ma06ba4d187" y="174.528"/>
     <use style="fill:#d62728;stroke:#d62728;" x="129.909421" xlink:href="#ma06ba4d187" y="239.923913"/>
     <use style="fill:#d62728;stroke:#d62728;" x="153.520661" xlink:href="#ma06ba4d187" y="284.557086"/>
     <use style="fill:#d62728;stroke:#d62728;" x="177.131901" xlink:href="#ma06ba4d187" y="294.256802"/>
     <use style="fill:#d62728;stroke:#d62728;" x="200.74314" xlink:href="#ma06ba4d187" y="265.943469"/>
     <use style="fill:#d62728;stroke:#d62728;" x="224.35438" xlink:href="#ma06ba4d187" y="208.60637"/>
     <use style="fill:#d62728;stroke:#d62728;" x="247.96562" xlink:href="#ma06ba4d187" y="140.44963"/>
     <use style="fill:#d62728;stroke:#d62728;" x="271.57686" xlink:href="#ma06ba4d187" y="83.112531"/>
     <use style="fill:#d62728;stroke:#d62728;" x="295.188099" xlink:href="#ma06ba4d187" y="54.799198"/>
     <use style="fill:#d62728;stroke:#d62728;" x="318.799339" xlink:href="#ma06ba4d187" y="64.498914"/>
     <use style="fill:#d62728;stroke:#d62728;" x="342.410579" xlink:href="#ma06ba4d187" y="109.132087"/>
     <use style="fill:#d62728;stroke:#d62728;" x="366.021818" xlink:href="#ma06ba4d187" y="174.528"/>
    </g>
   </g>
   <g id="patch_3">
    <path d="M 57.6 307.584 
L 57.6 41.472 
" style="fill:none;stroke:#000000;stroke-linecap:square;stroke-linejoin:miter;stroke-width:0.8;"/>
   </g>
   <g id="patch_4">
    <path d="M 414.72 307.584 
L 414.72 41.472 
" style="fill:none;stroke:#000000;stroke-linecap:square;stroke-linejoin:miter;stroke-width:0.8;"/>
   </g>
   <g id="patch_5">
    <path d="M 57.6 307.584 
L 414.72 307.584 
" style="fill:none;stroke:#000000;stroke-linecap:square;stroke-linejoin:miter;stroke-width:0.8;"/>
   </g>
   <g id="patch_6">
    <path d="M 57.6 41.472 
L 414.72 41.472 
" style="fill:none;stroke:#000000;stroke-linecap:square;stroke-linejoin:miter;stroke-width:0.8;"/>
   </g>
   <g id="legend_1">
    <g id="patch_7">
     <path d="M 64.6 108.1845 
L 210.732812 108.1845 
Q 212.732812 108.1845 212.732812 106.1845 
L 212.732812 48.472 
Q 212.732812 46.472 210.732812 46.472 
L 64.6 46.472 
Q 62.6 46.472 62.6 48.472 
L 62.6 106.1845 
Q 62.6 108.1845 64.6 108.1845 
z
" style="fill:#ffffff;opacity:0.8;stroke:#cccccc;stroke-linejoin:miter;"/>
    </g>
    <g id="line2d_19">
     <path d="M 66.6 54.570438 
L 86.6 54.570438 
" style="fill:none;stroke:#1f77b4;stroke-linecap:square;stroke-width:1.5;"/>
    </g>
    <g id="line2d_20"/>
    <g id="text_15">
     <!-- sin(pi*x) -->
     <g transform="translate(94.6 58.070438)scale(0.1 -0.1)">
      <defs>
       <path d="M 44.28125 53.078125 
L 44.28125 44.578125 
Q 40.484375 46.53125 36.375 47.5 
Q 32.28125 48.484375 27.875 48.484375 
Q 21.1875 48.484375 17.84375 46.4375 
Q 14.5 44.390625 14.5 40.28125 
Q 14.5 37.15625 16.890625 35.375 
Q 19.28125 33.59375 26.515625 31.984375 
L 29.59375 31.296875 
Q 39.15625 29.25 43.1875 25.515625 
Q 47.21875 21.78125 47.21875 15.09375 
Q 47.21875 7.46875 41.1875 3.015625 
Q 35.15625 -1.421875 24.609375 -1.421875 
Q 20.21875 -1.421875 15.453125 -0.5625 
Q 10.6875 0.296875 5.421875 2 
L 5.421875 11.28125 
Q 10.40625 8.6875 15.234375 7.390625 
Q 20.0625 6.109375 24.8125 6.109375 
Q 31.15625 6.109375 34.5625 8.28125 
Q 37.984375 10.453125 37.984375 14.40625 
Q 37.984375 18.0625 35.515625 20.015625 
Q 33.0625 21.96875 24.703125 23.78125 
L 21.578125 24.515625 
Q 13.234375 26.265625 9.515625 29.90625 
Q 5.8125 33.546875 5.8125 39.890625 
Q 5.8125 47.609375 11.28125 51.796875 
Q 16.75 56 26.8125 56 
Q 31.78125 56 36.171875 55.265625 
Q 40.578125 54.546875 44.28125 53.078125 
z
" id="DejaVuSans-115"/>
       <path d="M 9.421875 54.6875 
L 18.40625 54.6875 
L 18.40625 0 
L 9.421875 0 
z
M 9.421875 75.984375 
L 18.40625 75.984375 
L 18.40625 64.59375 
L 9.421875 64.59375 
z
" id="DejaVuSans-105"/>
       <path d="M 54.890625 33.015625 
L 54.890625 0 
L 45.90625 0 
L 45.90625 32.71875 
Q 45.90625 40.484375 42.875 44.328125 
Q 39.84375 48.1875 33.796875 48.1875 
Q 26.515625 48.1875 22.3125 43.546875 
Q 18.109375 38.921875 18.109375 30.90625 
L 18.109375 0 
L 9.078125 0 
L 9.078125 54.6875 
L 18.109375 54.6875 
L 18.109375 46.1875 
Q 21.34375 51.125 25.703125 53.5625 
Q 30.078125 56 35.796875 56 
Q 45.21875 56 50.046875 50.171875 
Q 54.890625 44.34375 54.890625 33.015625 
z
" id="DejaVuSans-110"/>
       <path d="M 31 75.875 
Q 24.46875 64.65625 21.28125 53.65625 
Q 18.109375 42.671875 18.109375 31.390625 
Q 18.109375 20.125 21.3125 9.0625 
Q 24.515625 -2 31 -13.1875 
L 23.1875 -13.1875 
Q 15.875 -1.703125 12.234375 9.375 
Q 8.59375 20.453125 8.59375 31.390625 
Q 8.59375 42.28125 12.203125 53.3125 
Q 15.828125 64.359375 23.1875 75.875 
z
" id="DejaVuSans-40"/>
       <path d="M 18.109375 8.203125 
L 18.109375 -20.796875 
L 9.078125 -20.796875 
L 9.078125 54.6875 
L 18.109375 54.6875 
L 18.109375 46.390625 
Q 20.953125 51.265625 25.265625 53.625 
Q 29.59375 56 35.59375 56 
Q 45.5625 56 51.78125 48.09375 
Q 58.015625 40.1875 58.015625 27.296875 
Q 58.015625 14.40625 51.78125 6.484375 
Q 45.5625 -1.421875 35.59375 -1.421875 
Q 29.59375 -1.421875 25.265625 0.953125 
Q 20.953125 3.328125 18.109375 8.203125 
z
M 48.6875 27.296875 
Q 48.6875 37.203125 44.609375 42.84375 
Q 40.53125 48.484375 33.40625 48.484375 
Q 26.265625 48.484375 22.1875 42.84375 
Q 18.109375 37.203125 18.109375 27.296875 
Q 18.109375 17.390625 22.1875 11.75 
Q 26.265625 6.109375 33.40625 6.109375 
Q 40.53125 6.109375 44.609375 11.75 
Q 48.6875 17.390625 48.6875 27.296875 
z
" id="DejaVuSans-112"/>
       <path d="M 47.015625 60.890625 
L 29.5 51.421875 
L 47.015625 41.890625 
L 44.1875 37.109375 
L 27.78125 47.015625 
L 27.78125 28.609375 
L 22.21875 28.609375 
L 22.21875 47.015625 
L 5.8125 37.109375 
L 2.984375 41.890625 
L 20.515625 51.421875 
L 2.984375 60.890625 
L 5.8125 65.71875 
L 22.21875 55.8125 
L 22.21875 74.21875 
L 27.78125 74.21875 
L 27.78125 55.8125 
L 44.1875 65.71875 
z
" id="DejaVuSans-42"/>
       <path d="M 54.890625 54.6875 
L 35.109375 28.078125 
L 55.90625 0 
L 45.3125 0 
L 29.390625 21.484375 
L 13.484375 0 
L 2.875 0 
L 24.125 28.609375 
L 4.6875 54.6875 
L 15.28125 54.6875 
L 29.78125 35.203125 
L 44.28125 54.6875 
z
" id="DejaVuSans-120"/>
       <path d="M 8.015625 75.875 
L 15.828125 75.875 
Q 23.140625 64.359375 26.78125 53.3125 
Q 30.421875 42.28125 30.421875 31.390625 
Q 30.421875 20.453125 26.78125 9.375 
Q 23.140625 -1.703125 15.828125 -13.1875 
L 8.015625 -13.1875 
Q 14.5 -2 17.703125 9.0625 
Q 20.90625 20.125 20.90625 31.390625 
Q 20.90625 42.671875 17.703125 53.65625 
Q 14.5 64.65625 8.015625 75.875 
z
" id="DejaVuSans-41"/>
      </defs>
      <use xlink:href="#DejaVuSans-115"/>
      <use x="52.099609" xlink:href="#DejaVuSans-105"/>
      <use x="79.882812" xlink:href="#DejaVuSans-110"/>
      <use x="143.261719" xlink:href="#DejaVuSans-40"/>
      <use x="182.275391" xlink:href="#DejaVuSans-112"/>
      <use x="245.751953" xlink:href="#DejaVuSans-105"/>
      <use x="273.535156" xlink:href="#DejaVuSans-42"/>
      <use x="323.535156" xlink:href="#DejaVuSans-120"/>
      <use x="382.714844" xlink:href="#DejaVuSans-41"/>
     </g>
    </g>
    <g id="line2d_21">
     <path d="M 66.6 69.248563 
L 86.6 69.248563 
" style="fill:none;stroke:#ff7f0e;stroke-dasharray:5.55,2.4;stroke-dashoffset:0;stroke-width:1.5;"/>
    </g>
    <g id="line2d_22"/>
    <g id="text_16">
     <!-- Lagrange interpolation -->
     <g transform="translate(94.6 72.748563)scale(0.1 -0.1)">
      <defs>
       <path d="M 9.8125 72.90625 
L 19.671875 72.90625 
L 19.671875 8.296875 
L 55.171875 8.296875 
L 55.171875 0 
L 9.8125 0 
z
" id="DejaVuSans-76"/>
       <path d="M 34.28125 27.484375 
Q 23.390625 27.484375 19.1875 25 
Q 14.984375 22.515625 14.984375 16.5 
Q 14.984375 11.71875 18.140625 8.90625 
Q 21.296875 6.109375 26.703125 6.109375 
Q 34.1875 6.109375 38.703125 11.40625 
Q 43.21875 16.703125 43.21875 25.484375 
L 43.21875 27.484375 
z
M 52.203125 31.203125 
L 52.203125 0 
L 43.21875 0 
L 43.21875 8.296875 
Q 40.140625 3.328125 35.546875 0.953125 
Q 30.953125 -1.421875 24.3125 -1.421875 
Q 15.921875 -1.421875 10.953125 3.296875 
Q 6 8.015625 6 15.921875 
Q 6 25.140625 12.171875 29.828125 
Q 18.359375 34.515625 30.609375 34.515625 
L 43.21875 34.515625 
L 43.21875 35.40625 
Q 43.21875 41.609375 39.140625 45 
Q 35.0625 48.390625 27.6875 48.390625 
Q 23 48.390625 18.546875 47.265625 
Q 14.109375 46.140625 10.015625 43.890625 
L 10.015625 52.203125 
Q 14.9375 54.109375 19.578125 55.046875 
Q 24.21875 56 28.609375 56 
Q 40.484375 56 46.34375 49.84375 
Q 52.203125 43.703125 52.203125 31.203125 
z
" id="DejaVuSans-97"/>
       <path d="M 45.40625 27.984375 
Q 45.40625 37.75 41.375 43.109375 
Q 37.359375 48.484375 30.078125 48.484375 
Q 22.859375 48.484375 18.828125 43.109375 
Q 14.796875 37.75 14.796875 27.984375 
Q 14.796875 18.265625 18.828125 12.890625 
Q 22.859375 7.515625 30.078125 7.515625 
Q 37.359375 7.515625 41.375 12.890625 
Q 45.40625 18.265625 45.40625 27.984375 
z
M 54.390625 6.78125 
Q 54.390625 -7.171875 48.1875 -13.984375 
Q 42 -20.796875 29.203125 -20.796875 
Q 24.46875 -20.796875 20.265625 -20.09375 
Q 16.0625 -19.390625 12.109375 -17.921875 
L 12.109375 -9.1875 
Q 16.0625 -11.328125 19.921875 -12.34375 
Q 23.78125 -13.375 27.78125 -13.375 
Q 36.625 -13.375 41.015625 -8.765625 
Q 45.40625 -4.15625 45.40625 5.171875 
L 45.40625 9.625 
Q 42.625 4.78125 38.28125 2.390625 
Q 33.9375 0 27.875 0 
Q 17.828125 0 11.671875 7.65625 
Q 5.515625 15.328125 5.515625 27.984375 
Q 5.515625 40.671875 11.671875 48.328125 
Q 17.828125 56 27.875 56 
Q 33.9375 56 38.28125 53.609375 
Q 42.625 51.21875 45.40625 46.390625 
L 45.40625 54.6875 
L 54.390625 54.6875 
z
" id="DejaVuSans-103"/>
       <path d="M 41.109375 46.296875 
Q 39.59375 47.171875 37.8125 47.578125 
Q 36.03125 48 33.890625 48 
Q 26.265625 48 22.1875 43.046875 
Q 18.109375 38.09375 18.109375 28.8125 
L 18.109375 0 
L 9.078125 0 
L 9.078125 54.6875 
L 18.109375 54.6875 
L 18.109375 46.1875 
Q 20.953125 51.171875 25.484375 53.578125 
Q 30.03125 56 36.53125 56 
Q 37.453125 56 38.578125 55.875 
Q 39.703125 55.765625 41.0625 55.515625 
z
" id="DejaVuSans-114"/>
       <path d="M 56.203125 29.59375 
L 56.203125 25.203125 
L 14.890625 25.203125 
Q 15.484375 15.921875 20.484375 11.0625 
Q 25.484375 6.203125 34.421875 6.203125 
Q 39.59375 6.203125 44.453125 7.46875 
Q 49.3125 8.734375 54.109375 11.28125 
L 54.109375 2.78125 
Q 49.265625 0.734375 44.1875 -0.34375 
Q 39.109375 -1.421875 33.890625 -1.421875 
Q 20.796875 -1.421875 13.15625 6.1875 
Q 5.515625 13.8125 5.515625 26.8125 
Q 5.515625 40.234375 12.765625 48.109375 
Q 20.015625 56 32.328125 56 
Q 43.359375 56 49.78125 48.890625 
Q 56.203125 41.796875 56.203125 29.59375 
z
M 47.21875 32.234375 
Q 47.125 39.59375 43.09375 43.984375 
Q 39.0625 48.390625 32.421875 48.390625 
Q 24.90625 48.390625 20.390625 44.140625 
Q 15.875 39.890625 15.1875 32.171875 
z
" id="DejaVuSans-101"/>
       <path id="DejaVuSans-32"/>
       <path d="M 18.3125 70.21875 
L 18.3125 54.6875 
L 36.8125 54.6875 
L 36.8125 47.703125 
L 18.3125 47.703125 
L 18.3125 18.015625 
Q 18.3125 11.328125 20.140625 9.421875 
Q 21.96875 7.515625 27.59375 7.515625 
L 36.8125 7.515625 
L 36.8125 0 
L 27.59375 0 
Q 17.1875 0 13.234375 3.875 
Q 9.28125 7.765625 9.28125 18.015625 
L 9.28125 47.703125 
L 2.6875 47.703125 
L 2.6875 54.6875 
L 9.28125 54.6875 
L 9.28125 70.21875 
z
" id="DejaVuSans-116"/>
       <path d="M 30.609375 48.390625 
Q 23.390625 48.390625 19.1875 42.75 
Q 14.984375 37.109375 14.984375 27.296875 
Q 14.984375 17.484375 19.15625 11.84375 
Q 23.34375 6.203125 30.609375 6.203125 
Q 37.796875 6.203125 41.984375 11.859375 
Q 46.1875 17.53125 46.1875 27.296875 
Q 46.1875 37.015625 41.984375 42.703125 
Q 37.796875 48.390625 30.609375 48.390625 
z
M 30.609375 56 
Q 42.328125 56 49.015625 48.375 
Q 55.71875 40.765625 55.71875 27.296875 
Q 55.71875 13.875 49.015625 6.21875 
Q 42.328125 -1.421875 30.609375 -1.421875 
Q 18.84375 -1.421875 12.171875 6.21875 
Q 5.515625 13.875 5.515625 27.296875 
Q 5.515625 40.765625 12.171875 48.375 
Q 18.84375 56 30.609375 56 
z
" id="DejaVuSans-111"/>
       <path d="M 9.421875 75.984375 
L 18.40625 75.984375 
L 18.40625 0 
L 9.421875 0 
z
" id="DejaVuSans-108"/>
      </defs>
      <use xlink:href="#DejaVuSans-76"/>
      <use x="55.712891" xlink:href="#DejaVuSans-97"/>
      <use x="116.992188" xlink:href="#DejaVuSans-103"/>
      <use x="180.46875" xlink:href="#DejaVuSans-114"/>
      <use x="221.582031" xlink:href="#DejaVuSans-97"/>
      <use x="282.861328" xlink:href="#DejaVuSans-110"/>
      <use x="346.240234" xlink:href="#DejaVuSans-103"/>
      <use x="409.716797" xlink:href="#DejaVuSans-101"/>
      <use x="471.240234" xlink:href="#DejaVuSans-32"/>
      <use x="503.027344" xlink:href="#DejaVuSans-105"/>
      <use x="530.810547" xlink:href="#DejaVuSans-110"/>
      <use x="594.189453" xlink:href="#DejaVuSans-116"/>
      <use x="633.398438" xlink:href="#DejaVuSans-101"/>
      <use x="694.921875" xlink:href="#DejaVuSans-114"/>
      <use x="736.035156" xlink:href="#DejaVuSans-112"/>
      <use x="799.511719" xlink:href="#DejaVuSans-111"/>
      <use x="860.693359" xlink:href="#DejaVuSans-108"/>
      <use x="888.476562" xlink:href="#DejaVuSans-97"/>
      <use x="949.755859" xlink:href="#DejaVuSans-116"/>
      <use x="988.964844" xlink:href="#DejaVuSans-105"/>
      <use x="1016.748047" xlink:href="#DejaVuSans-111"/>
      <use x="1077.929688" xlink:href="#DejaVuSans-110"/>
     </g>
    </g>
    <g id="line2d_23">
     <path d="M 66.6 83.926688 
L 86.6 83.926688 
" style="fill:none;stroke:#2ca02c;stroke-dasharray:9.6,2.4,1.5,2.4;stroke-dashoffset:0;stroke-width:1.5;"/>
    </g>
    <g id="line2d_24"/>
    <g id="text_17">
     <!-- NN Model -->
     <g transform="translate(94.6 87.426688)scale(0.1 -0.1)">
      <defs>
       <path d="M 9.8125 72.90625 
L 23.09375 72.90625 
L 55.421875 11.921875 
L 55.421875 72.90625 
L 64.984375 72.90625 
L 64.984375 0 
L 51.703125 0 
L 19.390625 60.984375 
L 19.390625 0 
L 9.8125 0 
z
" id="DejaVuSans-78"/>
       <path d="M 9.8125 72.90625 
L 24.515625 72.90625 
L 43.109375 23.296875 
L 61.8125 72.90625 
L 76.515625 72.90625 
L 76.515625 0 
L 66.890625 0 
L 66.890625 64.015625 
L 48.09375 14.015625 
L 38.1875 14.015625 
L 19.390625 64.015625 
L 19.390625 0 
L 9.8125 0 
z
" id="DejaVuSans-77"/>
       <path d="M 45.40625 46.390625 
L 45.40625 75.984375 
L 54.390625 75.984375 
L 54.390625 0 
L 45.40625 0 
L 45.40625 8.203125 
Q 42.578125 3.328125 38.25 0.953125 
Q 33.9375 -1.421875 27.875 -1.421875 
Q 17.96875 -1.421875 11.734375 6.484375 
Q 5.515625 14.40625 5.515625 27.296875 
Q 5.515625 40.1875 11.734375 48.09375 
Q 17.96875 56 27.875 56 
Q 33.9375 56 38.25 53.625 
Q 42.578125 51.265625 45.40625 46.390625 
z
M 14.796875 27.296875 
Q 14.796875 17.390625 18.875 11.75 
Q 22.953125 6.109375 30.078125 6.109375 
Q 37.203125 6.109375 41.296875 11.75 
Q 45.40625 17.390625 45.40625 27.296875 
Q 45.40625 37.203125 41.296875 42.84375 
Q 37.203125 48.484375 30.078125 48.484375 
Q 22.953125 48.484375 18.875 42.84375 
Q 14.796875 37.203125 14.796875 27.296875 
z
" id="DejaVuSans-100"/>
      </defs>
      <use xlink:href="#DejaVuSans-78"/>
      <use x="74.804688" xlink:href="#DejaVuSans-78"/>
      <use x="149.609375" xlink:href="#DejaVuSans-32"/>
      <use x="181.396484" xlink:href="#DejaVuSans-77"/>
      <use x="267.675781" xlink:href="#DejaVuSans-111"/>
      <use x="328.857422" xlink:href="#DejaVuSans-100"/>
      <use x="392.333984" xlink:href="#DejaVuSans-101"/>
      <use x="453.857422" xlink:href="#DejaVuSans-108"/>
     </g>
    </g>
    <g id="line2d_25"/>
    <g id="line2d_26">
     <g>
      <use style="fill:#d62728;stroke:#d62728;" x="76.6" xlink:href="#ma06ba4d187" y="98.604813"/>
     </g>
    </g>
    <g id="text_18">
     <!-- Samples -->
     <g transform="translate(94.6 102.104813)scale(0.1 -0.1)">
      <defs>
       <path d="M 53.515625 70.515625 
L 53.515625 60.890625 
Q 47.90625 63.578125 42.921875 64.890625 
Q 37.9375 66.21875 33.296875 66.21875 
Q 25.25 66.21875 20.875 63.09375 
Q 16.5 59.96875 16.5 54.203125 
Q 16.5 49.359375 19.40625 46.890625 
Q 22.3125 44.4375 30.421875 42.921875 
L 36.375 41.703125 
Q 47.40625 39.59375 52.65625 34.296875 
Q 57.90625 29 57.90625 20.125 
Q 57.90625 9.515625 50.796875 4.046875 
Q 43.703125 -1.421875 29.984375 -1.421875 
Q 24.8125 -1.421875 18.96875 -0.25 
Q 13.140625 0.921875 6.890625 3.21875 
L 6.890625 13.375 
Q 12.890625 10.015625 18.65625 8.296875 
Q 24.421875 6.59375 29.984375 6.59375 
Q 38.421875 6.59375 43.015625 9.90625 
Q 47.609375 13.234375 47.609375 19.390625 
Q 47.609375 24.75 44.3125 27.78125 
Q 41.015625 30.8125 33.5 32.328125 
L 27.484375 33.5 
Q 16.453125 35.6875 11.515625 40.375 
Q 6.59375 45.0625 6.59375 53.421875 
Q 6.59375 63.09375 13.40625 68.65625 
Q 20.21875 74.21875 32.171875 74.21875 
Q 37.3125 74.21875 42.625 73.28125 
Q 47.953125 72.359375 53.515625 70.515625 
z
" id="DejaVuSans-83"/>
       <path d="M 52 44.1875 
Q 55.375 50.25 60.0625 53.125 
Q 64.75 56 71.09375 56 
Q 79.640625 56 84.28125 50.015625 
Q 88.921875 44.046875 88.921875 33.015625 
L 88.921875 0 
L 79.890625 0 
L 79.890625 32.71875 
Q 79.890625 40.578125 77.09375 44.375 
Q 74.3125 48.1875 68.609375 48.1875 
Q 61.625 48.1875 57.5625 43.546875 
Q 53.515625 38.921875 53.515625 30.90625 
L 53.515625 0 
L 44.484375 0 
L 44.484375 32.71875 
Q 44.484375 40.625 41.703125 44.40625 
Q 38.921875 48.1875 33.109375 48.1875 
Q 26.21875 48.1875 22.15625 43.53125 
Q 18.109375 38.875 18.109375 30.90625 
L 18.109375 0 
L 9.078125 0 
L 9.078125 54.6875 
L 18.109375 54.6875 
L 18.109375 46.1875 
Q 21.1875 51.21875 25.484375 53.609375 
Q 29.78125 56 35.6875 56 
Q 41.65625 56 45.828125 52.96875 
Q 50 49.953125 52 44.1875 
z
" id="DejaVuSans-109"/>
      </defs>
      <use xlink:href="#DejaVuSans-83"/>
      <use x="63.476562" xlink:href="#DejaVuSans-97"/>
      <use x="124.755859" xlink:href="#DejaVuSans-109"/>
      <use x="222.167969" xlink:href="#DejaVuSans-112"/>
      <use x="285.644531" xlink:href="#DejaVuSans-108"/>
      <use x="313.427734" xlink:href="#DejaVuSans-101"/>
      <use x="374.951172" xlink:href="#DejaVuSans-115"/>
     </g>
    </g>
   </g>
  </g>
  <g id="text_19">
   <!-- Approximating sin(pi*x) using a neural network with 4 -->
   <g transform="translate(67.937813 16.030125)scale(0.12 -0.12)">
    <defs>
     <path d="M 34.1875 63.1875 
L 20.796875 26.90625 
L 47.609375 26.90625 
z
M 28.609375 72.90625 
L 39.796875 72.90625 
L 67.578125 0 
L 57.328125 0 
L 50.6875 18.703125 
L 17.828125 18.703125 
L 11.1875 0 
L 0.78125 0 
z
" id="DejaVuSans-65"/>
     <path d="M 8.5 21.578125 
L 8.5 54.6875 
L 17.484375 54.6875 
L 17.484375 21.921875 
Q 17.484375 14.15625 20.5 10.265625 
Q 23.53125 6.390625 29.59375 6.390625 
Q 36.859375 6.390625 41.078125 11.03125 
Q 45.3125 15.671875 45.3125 23.6875 
L 45.3125 54.6875 
L 54.296875 54.6875 
L 54.296875 0 
L 45.3125 0 
L 45.3125 8.40625 
Q 42.046875 3.421875 37.71875 1 
Q 33.40625 -1.421875 27.6875 -1.421875 
Q 18.265625 -1.421875 13.375 4.4375 
Q 8.5 10.296875 8.5 21.578125 
z
M 31.109375 56 
z
" id="DejaVuSans-117"/>
     <path d="M 4.203125 54.6875 
L 13.1875 54.6875 
L 24.421875 12.015625 
L 35.59375 54.6875 
L 46.1875 54.6875 
L 57.421875 12.015625 
L 68.609375 54.6875 
L 77.59375 54.6875 
L 63.28125 0 
L 52.6875 0 
L 40.921875 44.828125 
L 29.109375 0 
L 18.5 0 
z
" id="DejaVuSans-119"/>
     <path d="M 9.078125 75.984375 
L 18.109375 75.984375 
L 18.109375 31.109375 
L 44.921875 54.6875 
L 56.390625 54.6875 
L 27.390625 29.109375 
L 57.625 0 
L 45.90625 0 
L 18.109375 26.703125 
L 18.109375 0 
L 9.078125 0 
z
" id="DejaVuSans-107"/>
     <path d="M 54.890625 33.015625 
L 54.890625 0 
L 45.90625 0 
L 45.90625 32.71875 
Q 45.90625 40.484375 42.875 44.328125 
Q 39.84375 48.1875 33.796875 48.1875 
Q 26.515625 48.1875 22.3125 43.546875 
Q 18.109375 38.921875 18.109375 30.90625 
L 18.109375 0 
L 9.078125 0 
L 9.078125 75.984375 
L 18.109375 75.984375 
L 18.109375 46.1875 
Q 21.34375 51.125 25.703125 53.5625 
Q 30.078125 56 35.796875 56 
Q 45.21875 56 50.046875 50.171875 
Q 54.890625 44.34375 54.890625 33.015625 
z
" id="DejaVuSans-104"/>
     <path d="M 37.796875 64.3125 
L 12.890625 25.390625 
L 37.796875 25.390625 
z
M 35.203125 72.90625 
L 47.609375 72.90625 
L 47.609375 25.390625 
L 58.015625 25.390625 
L 58.015625 17.1875 
L 47.609375 17.1875 
L 47.609375 0 
L 37.796875 0 
L 37.796875 17.1875 
L 4.890625 17.1875 
L 4.890625 26.703125 
z
" id="DejaVuSans-52"/>
    </defs>
    <use xlink:href="#DejaVuSans-65"/>
    <use x="68.408203" xlink:href="#DejaVuSans-112"/>
    <use x="131.884766" xlink:href="#DejaVuSans-112"/>
    <use x="195.361328" xlink:href="#DejaVuSans-114"/>
    <use x="234.224609" xlink:href="#DejaVuSans-111"/>
    <use x="292.28125" xlink:href="#DejaVuSans-120"/>
    <use x="351.460938" xlink:href="#DejaVuSans-105"/>
    <use x="379.244141" xlink:href="#DejaVuSans-109"/>
    <use x="476.65625" xlink:href="#DejaVuSans-97"/>
    <use x="537.935547" xlink:href="#DejaVuSans-116"/>
    <use x="577.144531" xlink:href="#DejaVuSans-105"/>
    <use x="604.927734" xlink:href="#DejaVuSans-110"/>
    <use x="668.306641" xlink:href="#DejaVuSans-103"/>
    <use x="731.783203" xlink:href="#DejaVuSans-32"/>
    <use x="763.570312" xlink:href="#DejaVuSans-115"/>
    <use x="815.669922" xlink:href="#DejaVuSans-105"/>
    <use x="843.453125" xlink:href="#DejaVuSans-110"/>
    <use x="906.832031" xlink:href="#DejaVuSans-40"/>
    <use x="945.845703" xlink:href="#DejaVuSans-112"/>
    <use x="1009.322266" xlink:href="#DejaVuSans-105"/>
    <use x="1037.105469" xlink:href="#DejaVuSans-42"/>
    <use x="1087.105469" xlink:href="#DejaVuSans-120"/>
    <use x="1146.285156" xlink:href="#DejaVuSans-41"/>
    <use x="1185.298828" xlink:href="#DejaVuSans-32"/>
    <use x="1217.085938" xlink:href="#DejaVuSans-117"/>
    <use x="1280.464844" xlink:href="#DejaVuSans-115"/>
    <use x="1332.564453" xlink:href="#DejaVuSans-105"/>
    <use x="1360.347656" xlink:href="#DejaVuSans-110"/>
    <use x="1423.726562" xlink:href="#DejaVuSans-103"/>
    <use x="1487.203125" xlink:href="#DejaVuSans-32"/>
    <use x="1518.990234" xlink:href="#DejaVuSans-97"/>
    <use x="1580.269531" xlink:href="#DejaVuSans-32"/>
    <use x="1612.056641" xlink:href="#DejaVuSans-110"/>
    <use x="1675.435547" xlink:href="#DejaVuSans-101"/>
    <use x="1736.958984" xlink:href="#DejaVuSans-117"/>
    <use x="1800.337891" xlink:href="#DejaVuSans-114"/>
    <use x="1841.451172" xlink:href="#DejaVuSans-97"/>
    <use x="1902.730469" xlink:href="#DejaVuSans-108"/>
    <use x="1930.513672" xlink:href="#DejaVuSans-32"/>
    <use x="1962.300781" xlink:href="#DejaVuSans-110"/>
    <use x="2025.679688" xlink:href="#DejaVuSans-101"/>
    <use x="2087.203125" xlink:href="#DejaVuSans-116"/>
    <use x="2126.412109" xlink:href="#DejaVuSans-119"/>
    <use x="2208.199219" xlink:href="#DejaVuSans-111"/>
    <use x="2269.380859" xlink:href="#DejaVuSans-114"/>
    <use x="2310.494141" xlink:href="#DejaVuSans-107"/>
    <use x="2368.404297" xlink:href="#DejaVuSans-32"/>
    <use x="2400.191406" xlink:href="#DejaVuSans-119"/>
    <use x="2481.978516" xlink:href="#DejaVuSans-105"/>
    <use x="2509.761719" xlink:href="#DejaVuSans-116"/>
    <use x="2548.970703" xlink:href="#DejaVuSans-104"/>
    <use x="2612.349609" xlink:href="#DejaVuSans-32"/>
    <use x="2644.136719" xlink:href="#DejaVuSans-52"/>
   </g>
   <!-- neurons trained with 12 evenly spaced points to 1000000 -->
   <g transform="translate(56.547188 29.4675)scale(0.12 -0.12)">
    <defs>
     <path d="M 2.984375 54.6875 
L 12.5 54.6875 
L 29.59375 8.796875 
L 46.6875 54.6875 
L 56.203125 54.6875 
L 35.6875 0 
L 23.484375 0 
z
" id="DejaVuSans-118"/>
     <path d="M 32.171875 -5.078125 
Q 28.375 -14.84375 24.75 -17.8125 
Q 21.140625 -20.796875 15.09375 -20.796875 
L 7.90625 -20.796875 
L 7.90625 -13.28125 
L 13.1875 -13.28125 
Q 16.890625 -13.28125 18.9375 -11.515625 
Q 21 -9.765625 23.484375 -3.21875 
L 25.09375 0.875 
L 2.984375 54.6875 
L 12.5 54.6875 
L 29.59375 11.921875 
L 46.6875 54.6875 
L 56.203125 54.6875 
z
" id="DejaVuSans-121"/>
     <path d="M 48.78125 52.59375 
L 48.78125 44.1875 
Q 44.96875 46.296875 41.140625 47.34375 
Q 37.3125 48.390625 33.40625 48.390625 
Q 24.65625 48.390625 19.8125 42.84375 
Q 14.984375 37.3125 14.984375 27.296875 
Q 14.984375 17.28125 19.8125 11.734375 
Q 24.65625 6.203125 33.40625 6.203125 
Q 37.3125 6.203125 41.140625 7.25 
Q 44.96875 8.296875 48.78125 10.40625 
L 48.78125 2.09375 
Q 45.015625 0.34375 40.984375 -0.53125 
Q 36.96875 -1.421875 32.421875 -1.421875 
Q 20.0625 -1.421875 12.78125 6.34375 
Q 5.515625 14.109375 5.515625 27.296875 
Q 5.515625 40.671875 12.859375 48.328125 
Q 20.21875 56 33.015625 56 
Q 37.15625 56 41.109375 55.140625 
Q 45.0625 54.296875 48.78125 52.59375 
z
" id="DejaVuSans-99"/>
    </defs>
    <use xlink:href="#DejaVuSans-110"/>
    <use x="63.378906" xlink:href="#DejaVuSans-101"/>
    <use x="124.902344" xlink:href="#DejaVuSans-117"/>
    <use x="188.28125" xlink:href="#DejaVuSans-114"/>
    <use x="227.144531" xlink:href="#DejaVuSans-111"/>
    <use x="288.326172" xlink:href="#DejaVuSans-110"/>
    <use x="351.705078" xlink:href="#DejaVuSans-115"/>
    <use x="403.804688" xlink:href="#DejaVuSans-32"/>
    <use x="435.591797" xlink:href="#DejaVuSans-116"/>
    <use x="474.800781" xlink:href="#DejaVuSans-114"/>
    <use x="515.914062" xlink:href="#DejaVuSans-97"/>
    <use x="577.193359" xlink:href="#DejaVuSans-105"/>
    <use x="604.976562" xlink:href="#DejaVuSans-110"/>
    <use x="668.355469" xlink:href="#DejaVuSans-101"/>
    <use x="729.878906" xlink:href="#DejaVuSans-100"/>
    <use x="793.355469" xlink:href="#DejaVuSans-32"/>
    <use x="825.142578" xlink:href="#DejaVuSans-119"/>
    <use x="906.929688" xlink:href="#DejaVuSans-105"/>
    <use x="934.712891" xlink:href="#DejaVuSans-116"/>
    <use x="973.921875" xlink:href="#DejaVuSans-104"/>
    <use x="1037.300781" xlink:href="#DejaVuSans-32"/>
    <use x="1069.087891" xlink:href="#DejaVuSans-49"/>
    <use x="1132.710938" xlink:href="#DejaVuSans-50"/>
    <use x="1196.333984" xlink:href="#DejaVuSans-32"/>
    <use x="1228.121094" xlink:href="#DejaVuSans-101"/>
    <use x="1289.644531" xlink:href="#DejaVuSans-118"/>
    <use x="1348.824219" xlink:href="#DejaVuSans-101"/>
    <use x="1410.347656" xlink:href="#DejaVuSans-110"/>
    <use x="1473.726562" xlink:href="#DejaVuSans-108"/>
    <use x="1501.509766" xlink:href="#DejaVuSans-121"/>
    <use x="1560.689453" xlink:href="#DejaVuSans-32"/>
    <use x="1592.476562" xlink:href="#DejaVuSans-115"/>
    <use x="1644.576172" xlink:href="#DejaVuSans-112"/>
    <use x="1708.052734" xlink:href="#DejaVuSans-97"/>
    <use x="1769.332031" xlink:href="#DejaVuSans-99"/>
    <use x="1824.3125" xlink:href="#DejaVuSans-101"/>
    <use x="1885.835938" xlink:href="#DejaVuSans-100"/>
    <use x="1949.3125" xlink:href="#DejaVuSans-32"/>
    <use x="1981.099609" xlink:href="#DejaVuSans-112"/>
    <use x="2044.576172" xlink:href="#DejaVuSans-111"/>
    <use x="2105.757812" xlink:href="#DejaVuSans-105"/>
    <use x="2133.541016" xlink:href="#DejaVuSans-110"/>
    <use x="2196.919922" xlink:href="#DejaVuSans-116"/>
    <use x="2236.128906" xlink:href="#DejaVuSans-115"/>
    <use x="2288.228516" xlink:href="#DejaVuSans-32"/>
    <use x="2320.015625" xlink:href="#DejaVuSans-116"/>
    <use x="2359.224609" xlink:href="#DejaVuSans-111"/>
    <use x="2420.40625" xlink:href="#DejaVuSans-32"/>
    <use x="2452.193359" xlink:href="#DejaVuSans-49"/>
    <use x="2515.816406" xlink:href="#DejaVuSans-48"/>
    <use x="2579.439453" xlink:href="#DejaVuSans-48"/>
    <use x="2643.0625" xlink:href="#DejaVuSans-48"/>
    <use x="2706.685547" xlink:href="#DejaVuSans-48"/>
    <use x="2770.308594" xlink:href="#DejaVuSans-48"/>
    <use x="2833.931641" xlink:href="#DejaVuSans-48"/>
   </g>
   <!-- epochs -->
   <g transform="translate(209.000625 42.904875)scale(0.12 -0.12)">
    <use xlink:href="#DejaVuSans-101"/>
    <use x="61.523438" xlink:href="#DejaVuSans-112"/>
    <use x="125" xlink:href="#DejaVuSans-111"/>
    <use x="186.181641" xlink:href="#DejaVuSans-99"/>
    <use x="241.162109" xlink:href="#DejaVuSans-104"/>
    <use x="304.541016" xlink:href="#DejaVuSans-115"/>
   </g>
  </g>
 </g>
 <defs>
  <clipPath id="pbeda480ee7">
   <rect height="266.112" width="357.12" x="57.6" y="41.472"/>
  </clipPath>
 </defs>
</svg>
