<?xml version="1.0" encoding="utf-8" standalone="no"?>
<!DOCTYPE svg PUBLIC "-//W3C//DTD SVG 1.1//EN"
  "http://www.w3.org/Graphics/SVG/1.1/DTD/svg11.dtd">
<!-- Created with matplotlib (https://matplotlib.org/) -->
<svg height="345.6pt" version="1.1" viewBox="0 0 460.8 345.6" width="460.8pt" xmlns="http://www.w3.org/2000/svg" xmlns:xlink="http://www.w3.org/1999/xlink">
 <metadata>
  <rdf:RDF xmlns:cc="http://creativecommons.org/ns#" xmlns:dc="http://purl.org/dc/elements/1.1/" xmlns:rdf="http://www.w3.org/1999/02/22-rdf-syntax-ns#">
   <cc:Work>
    <dc:type rdf:resource="http://purl.org/dc/dcmitype/StillImage"/>
    <dc:date>2021-01-03T15:05:23.088498</dc:date>
    <dc:format>image/svg+xml</dc:format>
    <dc:creator>
     <cc:Agent>
      <dc:title>Matplotlib v3.3.3, https://matplotlib.org/</dc:title>
     </cc:Agent>
    </dc:creator>
   </cc:Work>
  </rdf:RDF>
 </metadata>
 <defs>
  <style type="text/css">*{stroke-linecap:butt;stroke-linejoin:round;}</style>
 </defs>
 <g id="figure_1">
  <g id="patch_1">
   <path d="M 0 345.6 
L 460.8 345.6 
L 460.8 0 
L 0 0 
z
" style="fill:#ffffff;"/>
  </g>
  <g id="axes_1">
   <g id="patch_2">
    <path d="M 57.6 307.584 
L 414.72 307.584 
L 414.72 41.472 
L 57.6 41.472 
z
" style="fill:#ffffff;"/>
   </g>
   <g id="matplotlib.axis_1">
    <g id="xtick_1">
     <g id="line2d_1">
      <defs>
       <path d="M 0 0 
L 0 3.5 
" id="mfb0baee0e8" style="stroke:#000000;stroke-width:0.8;"/>
      </defs>
      <g>
       <use style="stroke:#000000;stroke-width:0.8;" x="106.298182" xlink:href="#mfb0baee0e8" y="307.584"/>
      </g>
     </g>
     <g id="text_1">
      <!-- −1.0 -->
      <g transform="translate(94.156776 322.182437)scale(0.1 -0.1)">
       <defs>
        <path d="M 10.59375 35.5 
L 73.1875 35.5 
L 73.1875 27.203125 
L 10.59375 27.203125 
z
" id="DejaVuSans-8722"/>
        <path d="M 12.40625 8.296875 
L 28.515625 8.296875 
L 28.515625 63.921875 
L 10.984375 60.40625 
L 10.984375 69.390625 
L 28.421875 72.90625 
L 38.28125 72.90625 
L 38.28125 8.296875 
L 54.390625 8.296875 
L 54.390625 0 
L 12.40625 0 
z
" id="DejaVuSans-49"/>
        <path d="M 10.6875 12.40625 
L 21 12.40625 
L 21 0 
L 10.6875 0 
z
" id="DejaVuSans-46"/>
        <path d="M 31.78125 66.40625 
Q 24.171875 66.40625 20.328125 58.90625 
Q 16.5 51.421875 16.5 36.375 
Q 16.5 21.390625 20.328125 13.890625 
Q 24.171875 6.390625 31.78125 6.390625 
Q 39.453125 6.390625 43.28125 13.890625 
Q 47.125 21.390625 47.125 36.375 
Q 47.125 51.421875 43.28125 58.90625 
Q 39.453125 66.40625 31.78125 66.40625 
z
M 31.78125 74.21875 
Q 44.046875 74.21875 50.515625 64.515625 
Q 56.984375 54.828125 56.984375 36.375 
Q 56.984375 17.96875 50.515625 8.265625 
Q 44.046875 -1.421875 31.78125 -1.421875 
Q 19.53125 -1.421875 13.0625 8.265625 
Q 6.59375 17.96875 6.59375 36.375 
Q 6.59375 54.828125 13.0625 64.515625 
Q 19.53125 74.21875 31.78125 74.21875 
z
" id="DejaVuSans-48"/>
       </defs>
       <use xlink:href="#DejaVuSans-8722"/>
       <use x="83.789062" xlink:href="#DejaVuSans-49"/>
       <use x="147.412109" xlink:href="#DejaVuSans-46"/>
       <use x="179.199219" xlink:href="#DejaVuSans-48"/>
      </g>
     </g>
    </g>
    <g id="xtick_2">
     <g id="line2d_2">
      <g>
       <use style="stroke:#000000;stroke-width:0.8;" x="171.229091" xlink:href="#mfb0baee0e8" y="307.584"/>
      </g>
     </g>
     <g id="text_2">
      <!-- −0.5 -->
      <g transform="translate(159.087685 322.182437)scale(0.1 -0.1)">
       <defs>
        <path d="M 10.796875 72.90625 
L 49.515625 72.90625 
L 49.515625 64.59375 
L 19.828125 64.59375 
L 19.828125 46.734375 
Q 21.96875 47.46875 24.109375 47.828125 
Q 26.265625 48.1875 28.421875 48.1875 
Q 40.625 48.1875 47.75 41.5 
Q 54.890625 34.8125 54.890625 23.390625 
Q 54.890625 11.625 47.5625 5.09375 
Q 40.234375 -1.421875 26.90625 -1.421875 
Q 22.3125 -1.421875 17.546875 -0.640625 
Q 12.796875 0.140625 7.71875 1.703125 
L 7.71875 11.625 
Q 12.109375 9.234375 16.796875 8.0625 
Q 21.484375 6.890625 26.703125 6.890625 
Q 35.15625 6.890625 40.078125 11.328125 
Q 45.015625 15.765625 45.015625 23.390625 
Q 45.015625 31 40.078125 35.4375 
Q 35.15625 39.890625 26.703125 39.890625 
Q 22.75 39.890625 18.8125 39.015625 
Q 14.890625 38.140625 10.796875 36.28125 
z
" id="DejaVuSans-53"/>
       </defs>
       <use xlink:href="#DejaVuSans-8722"/>
       <use x="83.789062" xlink:href="#DejaVuSans-48"/>
       <use x="147.412109" xlink:href="#DejaVuSans-46"/>
       <use x="179.199219" xlink:href="#DejaVuSans-53"/>
      </g>
     </g>
    </g>
    <g id="xtick_3">
     <g id="line2d_3">
      <g>
       <use style="stroke:#000000;stroke-width:0.8;" x="236.16" xlink:href="#mfb0baee0e8" y="307.584"/>
      </g>
     </g>
     <g id="text_3">
      <!-- 0.0 -->
      <g transform="translate(228.208438 322.182437)scale(0.1 -0.1)">
       <use xlink:href="#DejaVuSans-48"/>
       <use x="63.623047" xlink:href="#DejaVuSans-46"/>
       <use x="95.410156" xlink:href="#DejaVuSans-48"/>
      </g>
     </g>
    </g>
    <g id="xtick_4">
     <g id="line2d_4">
      <g>
       <use style="stroke:#000000;stroke-width:0.8;" x="301.090909" xlink:href="#mfb0baee0e8" y="307.584"/>
      </g>
     </g>
     <g id="text_4">
      <!-- 0.5 -->
      <g transform="translate(293.139347 322.182437)scale(0.1 -0.1)">
       <use xlink:href="#DejaVuSans-48"/>
       <use x="63.623047" xlink:href="#DejaVuSans-46"/>
       <use x="95.410156" xlink:href="#DejaVuSans-53"/>
      </g>
     </g>
    </g>
    <g id="xtick_5">
     <g id="line2d_5">
      <g>
       <use style="stroke:#000000;stroke-width:0.8;" x="366.021818" xlink:href="#mfb0baee0e8" y="307.584"/>
      </g>
     </g>
     <g id="text_5">
      <!-- 1.0 -->
      <g transform="translate(358.070256 322.182437)scale(0.1 -0.1)">
       <use xlink:href="#DejaVuSans-49"/>
       <use x="63.623047" xlink:href="#DejaVuSans-46"/>
       <use x="95.410156" xlink:href="#DejaVuSans-48"/>
      </g>
     </g>
    </g>
   </g>
   <g id="matplotlib.axis_2">
    <g id="ytick_1">
     <g id="line2d_6">
      <defs>
       <path d="M 0 0 
L -3.5 0 
" id="m347bc869f1" style="stroke:#000000;stroke-width:0.8;"/>
      </defs>
      <g>
       <use style="stroke:#000000;stroke-width:0.8;" x="57.6" xlink:href="#m347bc869f1" y="295.488"/>
      </g>
     </g>
     <g id="text_6">
      <!-- −1.00 -->
      <g transform="translate(19.954687 299.287219)scale(0.1 -0.1)">
       <use xlink:href="#DejaVuSans-8722"/>
       <use x="83.789062" xlink:href="#DejaVuSans-49"/>
       <use x="147.412109" xlink:href="#DejaVuSans-46"/>
       <use x="179.199219" xlink:href="#DejaVuSans-48"/>
       <use x="242.822266" xlink:href="#DejaVuSans-48"/>
      </g>
     </g>
    </g>
    <g id="ytick_2">
     <g id="line2d_7">
      <g>
       <use style="stroke:#000000;stroke-width:0.8;" x="57.6" xlink:href="#m347bc869f1" y="265.248"/>
      </g>
     </g>
     <g id="text_7">
      <!-- −0.75 -->
      <g transform="translate(19.954687 269.047219)scale(0.1 -0.1)">
       <defs>
        <path d="M 8.203125 72.90625 
L 55.078125 72.90625 
L 55.078125 68.703125 
L 28.609375 0 
L 18.3125 0 
L 43.21875 64.59375 
L 8.203125 64.59375 
z
" id="DejaVuSans-55"/>
       </defs>
       <use xlink:href="#DejaVuSans-8722"/>
       <use x="83.789062" xlink:href="#DejaVuSans-48"/>
       <use x="147.412109" xlink:href="#DejaVuSans-46"/>
       <use x="179.199219" xlink:href="#DejaVuSans-55"/>
       <use x="242.822266" xlink:href="#DejaVuSans-53"/>
      </g>
     </g>
    </g>
    <g id="ytick_3">
     <g id="line2d_8">
      <g>
       <use style="stroke:#000000;stroke-width:0.8;" x="57.6" xlink:href="#m347bc869f1" y="235.008"/>
      </g>
     </g>
     <g id="text_8">
      <!-- −0.50 -->
      <g transform="translate(19.954687 238.807219)scale(0.1 -0.1)">
       <use xlink:href="#DejaVuSans-8722"/>
       <use x="83.789062" xlink:href="#DejaVuSans-48"/>
       <use x="147.412109" xlink:href="#DejaVuSans-46"/>
       <use x="179.199219" xlink:href="#DejaVuSans-53"/>
       <use x="242.822266" xlink:href="#DejaVuSans-48"/>
      </g>
     </g>
    </g>
    <g id="ytick_4">
     <g id="line2d_9">
      <g>
       <use style="stroke:#000000;stroke-width:0.8;" x="57.6" xlink:href="#m347bc869f1" y="204.768"/>
      </g>
     </g>
     <g id="text_9">
      <!-- −0.25 -->
      <g transform="translate(19.954687 208.567219)scale(0.1 -0.1)">
       <defs>
        <path d="M 19.1875 8.296875 
L 53.609375 8.296875 
L 53.609375 0 
L 7.328125 0 
L 7.328125 8.296875 
Q 12.9375 14.109375 22.625 23.890625 
Q 32.328125 33.6875 34.8125 36.53125 
Q 39.546875 41.84375 41.421875 45.53125 
Q 43.3125 49.21875 43.3125 52.78125 
Q 43.3125 58.59375 39.234375 62.25 
Q 35.15625 65.921875 28.609375 65.921875 
Q 23.96875 65.921875 18.8125 64.3125 
Q 13.671875 62.703125 7.8125 59.421875 
L 7.8125 69.390625 
Q 13.765625 71.78125 18.9375 73 
Q 24.125 74.21875 28.421875 74.21875 
Q 39.75 74.21875 46.484375 68.546875 
Q 53.21875 62.890625 53.21875 53.421875 
Q 53.21875 48.921875 51.53125 44.890625 
Q 49.859375 40.875 45.40625 35.40625 
Q 44.1875 33.984375 37.640625 27.21875 
Q 31.109375 20.453125 19.1875 8.296875 
z
" id="DejaVuSans-50"/>
       </defs>
       <use xlink:href="#DejaVuSans-8722"/>
       <use x="83.789062" xlink:href="#DejaVuSans-48"/>
       <use x="147.412109" xlink:href="#DejaVuSans-46"/>
       <use x="179.199219" xlink:href="#DejaVuSans-50"/>
       <use x="242.822266" xlink:href="#DejaVuSans-53"/>
      </g>
     </g>
    </g>
    <g id="ytick_5">
     <g id="line2d_10">
      <g>
       <use style="stroke:#000000;stroke-width:0.8;" x="57.6" xlink:href="#m347bc869f1" y="174.528"/>
      </g>
     </g>
     <g id="text_10">
      <!-- 0.00 -->
      <g transform="translate(28.334375 178.327219)scale(0.1 -0.1)">
       <use xlink:href="#DejaVuSans-48"/>
       <use x="63.623047" xlink:href="#DejaVuSans-46"/>
       <use x="95.410156" xlink:href="#DejaVuSans-48"/>
       <use x="159.033203" xlink:href="#DejaVuSans-48"/>
      </g>
     </g>
    </g>
    <g id="ytick_6">
     <g id="line2d_11">
      <g>
       <use style="stroke:#000000;stroke-width:0.8;" x="57.6" xlink:href="#m347bc869f1" y="144.288"/>
      </g>
     </g>
     <g id="text_11">
      <!-- 0.25 -->
      <g transform="translate(28.334375 148.087219)scale(0.1 -0.1)">
       <use xlink:href="#DejaVuSans-48"/>
       <use x="63.623047" xlink:href="#DejaVuSans-46"/>
       <use x="95.410156" xlink:href="#DejaVuSans-50"/>
       <use x="159.033203" xlink:href="#DejaVuSans-53"/>
      </g>
     </g>
    </g>
    <g id="ytick_7">
     <g id="line2d_12">
      <g>
       <use style="stroke:#000000;stroke-width:0.8;" x="57.6" xlink:href="#m347bc869f1" y="114.048"/>
      </g>
     </g>
     <g id="text_12">
      <!-- 0.50 -->
      <g transform="translate(28.334375 117.847219)scale(0.1 -0.1)">
       <use xlink:href="#DejaVuSans-48"/>
       <use x="63.623047" xlink:href="#DejaVuSans-46"/>
       <use x="95.410156" xlink:href="#DejaVuSans-53"/>
       <use x="159.033203" xlink:href="#DejaVuSans-48"/>
      </g>
     </g>
    </g>
    <g id="ytick_8">
     <g id="line2d_13">
      <g>
       <use style="stroke:#000000;stroke-width:0.8;" x="57.6" xlink:href="#m347bc869f1" y="83.808"/>
      </g>
     </g>
     <g id="text_13">
      <!-- 0.75 -->
      <g transform="translate(28.334375 87.607219)scale(0.1 -0.1)">
       <use xlink:href="#DejaVuSans-48"/>
       <use x="63.623047" xlink:href="#DejaVuSans-46"/>
       <use x="95.410156" xlink:href="#DejaVuSans-55"/>
       <use x="159.033203" xlink:href="#DejaVuSans-53"/>
      </g>
     </g>
    </g>
    <g id="ytick_9">
     <g id="line2d_14">
      <g>
       <use style="stroke:#000000;stroke-width:0.8;" x="57.6" xlink:href="#m347bc869f1" y="53.568"/>
      </g>
     </g>
     <g id="text_14">
      <!-- 1.00 -->
      <g transform="translate(28.334375 57.367219)scale(0.1 -0.1)">
       <use xlink:href="#DejaVuSans-49"/>
       <use x="63.623047" xlink:href="#DejaVuSans-46"/>
       <use x="95.410156" xlink:href="#DejaVuSans-48"/>
       <use x="159.033203" xlink:href="#DejaVuSans-48"/>
      </g>
     </g>
    </g>
   </g>
   <g id="line2d_15">
    <path clip-path="url(#pef4fb300ba)" d="M 73.832727 88.996364 
L 77.082523 95.977996 
L 80.657297 104.21651 
L 84.557052 113.8011 
L 88.781785 124.791095 
L 93.656478 138.109282 
L 99.831089 155.680832 
L 121.279738 217.414167 
L 126.154431 230.423284 
L 130.379165 241.076038 
L 134.278919 250.295313 
L 137.853694 258.156244 
L 141.103489 264.761601 
L 144.028305 270.230909 
L 146.95312 275.221281 
L 149.552957 279.234852 
L 152.152793 282.834365 
L 154.427649 285.633052 
L 156.702506 288.095328 
L 158.977363 290.213739 
L 160.92724 291.75094 
L 162.877117 293.027356 
L 164.826994 294.040146 
L 166.776871 294.787058 
L 168.726749 295.266431 
L 170.676626 295.477197 
L 172.301523 295.447293 
L 173.926421 295.230568 
L 175.876298 294.724384 
L 177.826175 293.950799 
L 179.776052 292.911535 
L 181.72593 291.608903 
L 183.675807 290.045802 
L 185.625684 288.225709 
L 187.900541 285.782891 
L 190.175397 283.00321 
L 192.450254 279.895081 
L 195.05009 275.952869 
L 197.649926 271.609579 
L 200.574742 266.265408 
L 203.499558 260.462145 
L 206.749353 253.511031 
L 210.324128 245.30299 
L 214.223882 235.747687 
L 218.448616 224.784464 
L 223.323309 211.490417 
L 229.49792 193.938569 
L 251.596527 130.399587 
L 256.47122 117.45544 
L 260.695954 106.872259 
L 264.595708 97.727485 
L 268.170483 89.942936 
L 271.420278 83.41324 
L 274.345094 78.016694 
L 277.26991 73.103131 
L 279.869746 69.160919 
L 282.469582 65.635377 
L 284.744439 62.903327 
L 287.019296 60.50926 
L 289.294152 58.460426 
L 291.244029 56.98379 
L 293.193907 55.768654 
L 295.143784 54.817722 
L 297.093661 54.133109 
L 299.043538 53.716338 
L 300.993415 53.568336 
L 302.618313 53.650567 
L 304.24321 53.919555 
L 306.193088 54.488256 
L 308.142965 55.324008 
L 310.092842 56.424953 
L 312.042719 57.788641 
L 313.992596 59.412039 
L 316.267453 61.629398 
L 318.54231 64.188597 
L 320.817166 67.081888 
L 323.417002 70.786315 
L 326.016839 74.900983 
L 328.616675 79.409621 
L 331.541491 84.930497 
L 334.791286 91.589408 
L 338.041081 98.760687 
L 341.615856 107.187916 
L 345.51561 116.953002 
L 350.065324 128.986433 
L 355.264996 143.405 
L 362.089566 163.038627 
L 378.013563 209.128607 
L 383.213235 223.396519 
L 387.762948 235.2549 
L 391.662703 244.83949 
L 395.237477 253.078004 
L 398.487273 260.059636 
L 398.487273 260.059636 
" style="fill:none;stroke:#1f77b4;stroke-linecap:square;stroke-width:1.5;"/>
   </g>
   <g id="line2d_16">
    <path clip-path="url(#pef4fb300ba)" d="M 73.832727 150.746105 
L 75.132645 148.309985 
L 76.432563 146.270907 
L 77.732482 144.612197 
L 79.0324 143.31751 
L 80.332318 142.370823 
L 81.632236 141.756438 
L 82.932154 141.458974 
L 84.232072 141.463368 
L 85.53199 141.754872 
L 86.831908 142.319048 
L 88.131826 143.141767 
L 89.431744 144.209208 
L 91.056642 145.867081 
L 92.68154 147.860487 
L 94.631417 150.660303 
L 96.581294 153.865433 
L 98.856151 158.063209 
L 101.455987 163.389959 
L 104.380803 169.952758 
L 107.630598 177.814488 
L 111.530352 187.833444 
L 117.379984 203.55766 
L 127.454349 230.717074 
L 132.004062 242.3269 
L 135.903817 251.694534 
L 139.478591 259.694428 
L 142.728387 266.406413 
L 145.653202 271.94337 
L 148.253038 276.434908 
L 150.852875 280.499239 
L 153.127731 283.690519 
L 155.402588 286.529964 
L 157.677445 289.008577 
L 159.627322 290.840226 
L 161.577199 292.397476 
L 163.527076 293.677321 
L 165.476953 294.677524 
L 167.42683 295.396604 
L 169.051728 295.780531 
L 170.676626 295.968651 
L 172.301523 295.961245 
L 173.926421 295.758925 
L 175.551319 295.362621 
L 177.501196 294.632768 
L 179.451073 293.628104 
L 181.40095 292.351959 
L 183.350827 290.808253 
L 185.300704 289.001472 
L 187.575561 286.567812 
L 189.850418 283.791855 
L 192.125274 280.683437 
L 194.725111 276.737663 
L 197.324947 272.389053 
L 200.249762 267.038711 
L 203.174578 261.23083 
L 206.424373 254.278119 
L 209.999148 246.074127 
L 213.898903 236.531157 
L 218.123636 225.590528 
L 222.998329 212.332405 
L 229.17294 194.834064 
L 241.522162 158.91484 
L 248.671712 138.533678 
L 253.871384 124.329918 
L 258.421097 112.524843 
L 262.320852 102.981873 
L 265.895627 94.777881 
L 269.145422 87.82517 
L 272.395217 81.399673 
L 275.320033 76.101968 
L 277.919869 71.802716 
L 280.519705 67.908546 
L 283.119541 64.436643 
L 285.394398 61.757521 
L 287.669255 59.423337 
L 289.619132 57.703715 
L 291.569009 56.248725 
L 293.518886 55.062667 
L 295.468763 54.149266 
L 297.41864 53.511652 
L 299.043538 53.19281 
L 300.668436 53.068362 
L 302.293333 53.139111 
L 303.918231 53.405538 
L 305.543129 53.867793 
L 307.493006 54.680699 
L 309.442883 55.774317 
L 311.39276 57.146917 
L 313.342637 58.796007 
L 315.292514 60.718316 
L 317.567371 63.30085 
L 319.842228 66.241807 
L 322.117084 69.531736 
L 324.716921 73.704709 
L 327.316757 78.299831 
L 330.241572 83.946359 
L 333.166388 90.063223 
L 336.416183 97.361466 
L 339.990958 105.925756 
L 344.215692 116.643184 
L 349.740344 131.3425 
L 363.064505 167.131769 
L 366.964259 176.801119 
L 370.214054 184.255935 
L 372.81389 189.710882 
L 375.088747 194.039145 
L 377.363604 197.888546 
L 379.313481 200.758782 
L 380.938378 202.816269 
L 382.563276 204.543285 
L 384.188174 205.914233 
L 385.488092 206.736952 
L 386.78801 207.301128 
L 388.087928 207.592632 
L 389.387846 207.597026 
L 390.362785 207.403046 
L 391.337723 207.032938 
L 392.637641 206.254345 
L 393.937559 205.13564 
L 395.237477 203.660965 
L 396.537396 201.814135 
L 397.837314 199.57864 
L 398.487273 198.309895 
L 398.487273 198.309895 
" style="fill:none;stroke:#ff7f0e;stroke-dasharray:5.55,2.4;stroke-dashoffset:0;stroke-width:1.5;"/>
   </g>
   <g id="line2d_17">
    <path clip-path="url(#pef4fb300ba)" d="M 73.832727 55.01121 
L 83.582107 92.611384 
L 91.381627 121.856651 
L 98.2062 146.583939 
L 104.055828 166.955765 
L 109.25549 184.290573 
L 114.130188 199.770964 
L 118.679898 213.454802 
L 122.90463 225.425647 
L 126.804389 235.788098 
L 130.379162 244.662289 
L 133.628955 252.17836 
L 136.878749 259.141361 
L 139.80357 264.914238 
L 142.728384 270.201478 
L 145.328219 274.480906 
L 147.928054 278.35441 
L 150.527888 281.8132 
L 152.802751 284.493464 
L 155.077607 286.846065 
L 157.352462 288.867427 
L 159.302338 290.334249 
L 161.252214 291.554331 
L 163.20209 292.526793 
L 165.151974 293.251152 
L 167.10185 293.727365 
L 169.051726 293.955807 
L 171.001602 293.937242 
L 172.951477 293.672859 
L 174.901353 293.164245 
L 176.851233 292.413333 
L 178.801109 291.42245 
L 180.750985 290.194278 
L 182.700861 288.731847 
L 184.97572 286.734054 
L 187.250576 284.427819 
L 189.525431 281.819523 
L 192.12527 278.47764 
L 194.725104 274.761388 
L 197.649922 270.147952 
L 200.574736 265.093898 
L 203.824533 258.984967 
L 207.074327 252.384019 
L 210.649103 244.590451 
L 214.548855 235.500752 
L 218.77359 225.028572 
L 223.323304 213.115189 
L 228.522975 198.83241 
L 234.697586 181.190837 
L 256.146246 119.241722 
L 260.695961 107.109771 
L 264.595713 97.312274 
L 268.170489 88.924073 
L 271.420285 81.866046 
L 274.345099 76.029053 
L 276.944933 71.285957 
L 279.544772 66.990559 
L 281.819627 63.618892 
L 284.094482 60.623993 
L 286.369342 58.018812 
L 288.319218 56.104515 
L 290.269093 54.490606 
L 292.218973 53.181743 
L 293.84387 52.326548 
L 295.468767 51.686969 
L 297.093663 51.263726 
L 298.71856 51.057022 
L 300.34346 51.066423 
L 301.968357 51.290921 
L 303.593254 51.728872 
L 305.21815 52.378041 
L 306.843047 53.235874 
L 308.792923 54.535768 
L 310.742807 56.124544 
L 312.692683 57.994472 
L 314.967538 60.519913 
L 317.242393 63.400983 
L 319.517249 66.621043 
L 322.117083 70.693068 
L 325.041905 75.739696 
L 327.966719 81.238204 
L 331.216512 87.823673 
L 334.791285 95.575035 
L 339.016024 105.311955 
L 343.890714 117.158284 
L 350.065321 132.819305 
L 359.814709 158.273772 
L 372.488911 191.253113 
L 380.613402 211.759682 
L 388.087934 230.026375 
L 395.562451 247.701405 
L 398.487273 254.46409 
L 398.487273 254.46409 
" style="fill:none;stroke:#2ca02c;stroke-dasharray:9.6,2.4,1.5,2.4;stroke-dashoffset:0;stroke-width:1.5;"/>
   </g>
   <g id="line2d_18">
    <defs>
     <path d="M 0 1.5 
C 0.397805 1.5 0.77937 1.341951 1.06066 1.06066 
C 1.341951 0.77937 1.5 0.397805 1.5 0 
C 1.5 -0.397805 1.341951 -0.77937 1.06066 -1.06066 
C 0.77937 -1.341951 0.397805 -1.5 0 -1.5 
C -0.397805 -1.5 -0.77937 -1.341951 -1.06066 -1.06066 
C -1.341951 -0.77937 -1.5 -0.397805 -1.5 0 
C -1.5 0.397805 -1.341951 0.77937 -1.06066 1.06066 
C -0.77937 1.341951 -0.397805 1.5 0 1.5 
z
" id="m04302c9717" style="stroke:#d62728;"/>
    </defs>
    <g clip-path="url(#pef4fb300ba)">
     <use style="fill:#d62728;stroke:#d62728;" x="106.298182" xlink:href="#m04302c9717" y="174.528"/>
     <use style="fill:#d62728;stroke:#d62728;" x="158.242909" xlink:href="#m04302c9717" y="289.567796"/>
     <use style="fill:#d62728;stroke:#d62728;" x="210.187636" xlink:href="#m04302c9717" y="245.626504"/>
     <use style="fill:#d62728;stroke:#d62728;" x="262.132364" xlink:href="#m04302c9717" y="103.429496"/>
     <use style="fill:#d62728;stroke:#d62728;" x="314.077091" xlink:href="#m04302c9717" y="59.488204"/>
     <use style="fill:#d62728;stroke:#d62728;" x="366.021818" xlink:href="#m04302c9717" y="174.528"/>
    </g>
   </g>
   <g id="patch_3">
    <path d="M 57.6 307.584 
L 57.6 41.472 
" style="fill:none;stroke:#000000;stroke-linecap:square;stroke-linejoin:miter;stroke-width:0.8;"/>
   </g>
   <g id="patch_4">
    <path d="M 414.72 307.584 
L 414.72 41.472 
" style="fill:none;stroke:#000000;stroke-linecap:square;stroke-linejoin:miter;stroke-width:0.8;"/>
   </g>
   <g id="patch_5">
    <path d="M 57.6 307.584 
L 414.72 307.584 
" style="fill:none;stroke:#000000;stroke-linecap:square;stroke-linejoin:miter;stroke-width:0.8;"/>
   </g>
   <g id="patch_6">
    <path d="M 57.6 41.472 
L 414.72 41.472 
" style="fill:none;stroke:#000000;stroke-linecap:square;stroke-linejoin:miter;stroke-width:0.8;"/>
   </g>
   <g id="legend_1">
    <g id="patch_7">
     <path d="M 64.6 108.1845 
L 210.732812 108.1845 
Q 212.732812 108.1845 212.732812 106.1845 
L 212.732812 48.472 
Q 212.732812 46.472 210.732812 46.472 
L 64.6 46.472 
Q 62.6 46.472 62.6 48.472 
L 62.6 106.1845 
Q 62.6 108.1845 64.6 108.1845 
z
" style="fill:#ffffff;opacity:0.8;stroke:#cccccc;stroke-linejoin:miter;"/>
    </g>
    <g id="line2d_19">
     <path d="M 66.6 54.570438 
L 86.6 54.570438 
" style="fill:none;stroke:#1f77b4;stroke-linecap:square;stroke-width:1.5;"/>
    </g>
    <g id="line2d_20"/>
    <g id="text_15">
     <!-- sin(pi*x) -->
     <g transform="translate(94.6 58.070438)scale(0.1 -0.1)">
      <defs>
       <path d="M 44.28125 53.078125 
L 44.28125 44.578125 
Q 40.484375 46.53125 36.375 47.5 
Q 32.28125 48.484375 27.875 48.484375 
Q 21.1875 48.484375 17.84375 46.4375 
Q 14.5 44.390625 14.5 40.28125 
Q 14.5 37.15625 16.890625 35.375 
Q 19.28125 33.59375 26.515625 31.984375 
L 29.59375 31.296875 
Q 39.15625 29.25 43.1875 25.515625 
Q 47.21875 21.78125 47.21875 15.09375 
Q 47.21875 7.46875 41.1875 3.015625 
Q 35.15625 -1.421875 24.609375 -1.421875 
Q 20.21875 -1.421875 15.453125 -0.5625 
Q 10.6875 0.296875 5.421875 2 
L 5.421875 11.28125 
Q 10.40625 8.6875 15.234375 7.390625 
Q 20.0625 6.109375 24.8125 6.109375 
Q 31.15625 6.109375 34.5625 8.28125 
Q 37.984375 10.453125 37.984375 14.40625 
Q 37.984375 18.0625 35.515625 20.015625 
Q 33.0625 21.96875 24.703125 23.78125 
L 21.578125 24.515625 
Q 13.234375 26.265625 9.515625 29.90625 
Q 5.8125 33.546875 5.8125 39.890625 
Q 5.8125 47.609375 11.28125 51.796875 
Q 16.75 56 26.8125 56 
Q 31.78125 56 36.171875 55.265625 
Q 40.578125 54.546875 44.28125 53.078125 
z
" id="DejaVuSans-115"/>
       <path d="M 9.421875 54.6875 
L 18.40625 54.6875 
L 18.40625 0 
L 9.421875 0 
z
M 9.421875 75.984375 
L 18.40625 75.984375 
L 18.40625 64.59375 
L 9.421875 64.59375 
z
" id="DejaVuSans-105"/>
       <path d="M 54.890625 33.015625 
L 54.890625 0 
L 45.90625 0 
L 45.90625 32.71875 
Q 45.90625 40.484375 42.875 44.328125 
Q 39.84375 48.1875 33.796875 48.1875 
Q 26.515625 48.1875 22.3125 43.546875 
Q 18.109375 38.921875 18.109375 30.90625 
L 18.109375 0 
L 9.078125 0 
L 9.078125 54.6875 
L 18.109375 54.6875 
L 18.109375 46.1875 
Q 21.34375 51.125 25.703125 53.5625 
Q 30.078125 56 35.796875 56 
Q 45.21875 56 50.046875 50.171875 
Q 54.890625 44.34375 54.890625 33.015625 
z
" id="DejaVuSans-110"/>
       <path d="M 31 75.875 
Q 24.46875 64.65625 21.28125 53.65625 
Q 18.109375 42.671875 18.109375 31.390625 
Q 18.109375 20.125 21.3125 9.0625 
Q 24.515625 -2 31 -13.1875 
L 23.1875 -13.1875 
Q 15.875 -1.703125 12.234375 9.375 
Q 8.59375 20.453125 8.59375 31.390625 
Q 8.59375 42.28125 12.203125 53.3125 
Q 15.828125 64.359375 23.1875 75.875 
z
" id="DejaVuSans-40"/>
       <path d="M 18.109375 8.203125 
L 18.109375 -20.796875 
L 9.078125 -20.796875 
L 9.078125 54.6875 
L 18.109375 54.6875 
L 18.109375 46.390625 
Q 20.953125 51.265625 25.265625 53.625 
Q 29.59375 56 35.59375 56 
Q 45.5625 56 51.78125 48.09375 
Q 58.015625 40.1875 58.015625 27.296875 
Q 58.015625 14.40625 51.78125 6.484375 
Q 45.5625 -1.421875 35.59375 -1.421875 
Q 29.59375 -1.421875 25.265625 0.953125 
Q 20.953125 3.328125 18.109375 8.203125 
z
M 48.6875 27.296875 
Q 48.6875 37.203125 44.609375 42.84375 
Q 40.53125 48.484375 33.40625 48.484375 
Q 26.265625 48.484375 22.1875 42.84375 
Q 18.109375 37.203125 18.109375 27.296875 
Q 18.109375 17.390625 22.1875 11.75 
Q 26.265625 6.109375 33.40625 6.109375 
Q 40.53125 6.109375 44.609375 11.75 
Q 48.6875 17.390625 48.6875 27.296875 
z
" id="DejaVuSans-112"/>
       <path d="M 47.015625 60.890625 
L 29.5 51.421875 
L 47.015625 41.890625 
L 44.1875 37.109375 
L 27.78125 47.015625 
L 27.78125 28.609375 
L 22.21875 28.609375 
L 22.21875 47.015625 
L 5.8125 37.109375 
L 2.984375 41.890625 
L 20.515625 51.421875 
L 2.984375 60.890625 
L 5.8125 65.71875 
L 22.21875 55.8125 
L 22.21875 74.21875 
L 27.78125 74.21875 
L 27.78125 55.8125 
L 44.1875 65.71875 
z
" id="DejaVuSans-42"/>
       <path d="M 54.890625 54.6875 
L 35.109375 28.078125 
L 55.90625 0 
L 45.3125 0 
L 29.390625 21.484375 
L 13.484375 0 
L 2.875 0 
L 24.125 28.609375 
L 4.6875 54.6875 
L 15.28125 54.6875 
L 29.78125 35.203125 
L 44.28125 54.6875 
z
" id="DejaVuSans-120"/>
       <path d="M 8.015625 75.875 
L 15.828125 75.875 
Q 23.140625 64.359375 26.78125 53.3125 
Q 30.421875 42.28125 30.421875 31.390625 
Q 30.421875 20.453125 26.78125 9.375 
Q 23.140625 -1.703125 15.828125 -13.1875 
L 8.015625 -13.1875 
Q 14.5 -2 17.703125 9.0625 
Q 20.90625 20.125 20.90625 31.390625 
Q 20.90625 42.671875 17.703125 53.65625 
Q 14.5 64.65625 8.015625 75.875 
z
" id="DejaVuSans-41"/>
      </defs>
      <use xlink:href="#DejaVuSans-115"/>
      <use x="52.099609" xlink:href="#DejaVuSans-105"/>
      <use x="79.882812" xlink:href="#DejaVuSans-110"/>
      <use x="143.261719" xlink:href="#DejaVuSans-40"/>
      <use x="182.275391" xlink:href="#DejaVuSans-112"/>
      <use x="245.751953" xlink:href="#DejaVuSans-105"/>
      <use x="273.535156" xlink:href="#DejaVuSans-42"/>
      <use x="323.535156" xlink:href="#DejaVuSans-120"/>
      <use x="382.714844" xlink:href="#DejaVuSans-41"/>
     </g>
    </g>
    <g id="line2d_21">
     <path d="M 66.6 69.248563 
L 86.6 69.248563 
" style="fill:none;stroke:#ff7f0e;stroke-dasharray:5.55,2.4;stroke-dashoffset:0;stroke-width:1.5;"/>
    </g>
    <g id="line2d_22"/>
    <g id="text_16">
     <!-- Lagrange interpolation -->
     <g transform="translate(94.6 72.748563)scale(0.1 -0.1)">
      <defs>
       <path d="M 9.8125 72.90625 
L 19.671875 72.90625 
L 19.671875 8.296875 
L 55.171875 8.296875 
L 55.171875 0 
L 9.8125 0 
z
" id="DejaVuSans-76"/>
       <path d="M 34.28125 27.484375 
Q 23.390625 27.484375 19.1875 25 
Q 14.984375 22.515625 14.984375 16.5 
Q 14.984375 11.71875 18.140625 8.90625 
Q 21.296875 6.109375 26.703125 6.109375 
Q 34.1875 6.109375 38.703125 11.40625 
Q 43.21875 16.703125 43.21875 25.484375 
L 43.21875 27.484375 
z
M 52.203125 31.203125 
L 52.203125 0 
L 43.21875 0 
L 43.21875 8.296875 
Q 40.140625 3.328125 35.546875 0.953125 
Q 30.953125 -1.421875 24.3125 -1.421875 
Q 15.921875 -1.421875 10.953125 3.296875 
Q 6 8.015625 6 15.921875 
Q 6 25.140625 12.171875 29.828125 
Q 18.359375 34.515625 30.609375 34.515625 
L 43.21875 34.515625 
L 43.21875 35.40625 
Q 43.21875 41.609375 39.140625 45 
Q 35.0625 48.390625 27.6875 48.390625 
Q 23 48.390625 18.546875 47.265625 
Q 14.109375 46.140625 10.015625 43.890625 
L 10.015625 52.203125 
Q 14.9375 54.109375 19.578125 55.046875 
Q 24.21875 56 28.609375 56 
Q 40.484375 56 46.34375 49.84375 
Q 52.203125 43.703125 52.203125 31.203125 
z
" id="DejaVuSans-97"/>
       <path d="M 45.40625 27.984375 
Q 45.40625 37.75 41.375 43.109375 
Q 37.359375 48.484375 30.078125 48.484375 
Q 22.859375 48.484375 18.828125 43.109375 
Q 14.796875 37.75 14.796875 27.984375 
Q 14.796875 18.265625 18.828125 12.890625 
Q 22.859375 7.515625 30.078125 7.515625 
Q 37.359375 7.515625 41.375 12.890625 
Q 45.40625 18.265625 45.40625 27.984375 
z
M 54.390625 6.78125 
Q 54.390625 -7.171875 48.1875 -13.984375 
Q 42 -20.796875 29.203125 -20.796875 
Q 24.46875 -20.796875 20.265625 -20.09375 
Q 16.0625 -19.390625 12.109375 -17.921875 
L 12.109375 -9.1875 
Q 16.0625 -11.328125 19.921875 -12.34375 
Q 23.78125 -13.375 27.78125 -13.375 
Q 36.625 -13.375 41.015625 -8.765625 
Q 45.40625 -4.15625 45.40625 5.171875 
L 45.40625 9.625 
Q 42.625 4.78125 38.28125 2.390625 
Q 33.9375 0 27.875 0 
Q 17.828125 0 11.671875 7.65625 
Q 5.515625 15.328125 5.515625 27.984375 
Q 5.515625 40.671875 11.671875 48.328125 
Q 17.828125 56 27.875 56 
Q 33.9375 56 38.28125 53.609375 
Q 42.625 51.21875 45.40625 46.390625 
L 45.40625 54.6875 
L 54.390625 54.6875 
z
" id="DejaVuSans-103"/>
       <path d="M 41.109375 46.296875 
Q 39.59375 47.171875 37.8125 47.578125 
Q 36.03125 48 33.890625 48 
Q 26.265625 48 22.1875 43.046875 
Q 18.109375 38.09375 18.109375 28.8125 
L 18.109375 0 
L 9.078125 0 
L 9.078125 54.6875 
L 18.109375 54.6875 
L 18.109375 46.1875 
Q 20.953125 51.171875 25.484375 53.578125 
Q 30.03125 56 36.53125 56 
Q 37.453125 56 38.578125 55.875 
Q 39.703125 55.765625 41.0625 55.515625 
z
" id="DejaVuSans-114"/>
       <path d="M 56.203125 29.59375 
L 56.203125 25.203125 
L 14.890625 25.203125 
Q 15.484375 15.921875 20.484375 11.0625 
Q 25.484375 6.203125 34.421875 6.203125 
Q 39.59375 6.203125 44.453125 7.46875 
Q 49.3125 8.734375 54.109375 11.28125 
L 54.109375 2.78125 
Q 49.265625 0.734375 44.1875 -0.34375 
Q 39.109375 -1.421875 33.890625 -1.421875 
Q 20.796875 -1.421875 13.15625 6.1875 
Q 5.515625 13.8125 5.515625 26.8125 
Q 5.515625 40.234375 12.765625 48.109375 
Q 20.015625 56 32.328125 56 
Q 43.359375 56 49.78125 48.890625 
Q 56.203125 41.796875 56.203125 29.59375 
z
M 47.21875 32.234375 
Q 47.125 39.59375 43.09375 43.984375 
Q 39.0625 48.390625 32.421875 48.390625 
Q 24.90625 48.390625 20.390625 44.140625 
Q 15.875 39.890625 15.1875 32.171875 
z
" id="DejaVuSans-101"/>
       <path id="DejaVuSans-32"/>
       <path d="M 18.3125 70.21875 
L 18.3125 54.6875 
L 36.8125 54.6875 
L 36.8125 47.703125 
L 18.3125 47.703125 
L 18.3125 18.015625 
Q 18.3125 11.328125 20.140625 9.421875 
Q 21.96875 7.515625 27.59375 7.515625 
L 36.8125 7.515625 
L 36.8125 0 
L 27.59375 0 
Q 17.1875 0 13.234375 3.875 
Q 9.28125 7.765625 9.28125 18.015625 
L 9.28125 47.703125 
L 2.6875 47.703125 
L 2.6875 54.6875 
L 9.28125 54.6875 
L 9.28125 70.21875 
z
" id="DejaVuSans-116"/>
       <path d="M 30.609375 48.390625 
Q 23.390625 48.390625 19.1875 42.75 
Q 14.984375 37.109375 14.984375 27.296875 
Q 14.984375 17.484375 19.15625 11.84375 
Q 23.34375 6.203125 30.609375 6.203125 
Q 37.796875 6.203125 41.984375 11.859375 
Q 46.1875 17.53125 46.1875 27.296875 
Q 46.1875 37.015625 41.984375 42.703125 
Q 37.796875 48.390625 30.609375 48.390625 
z
M 30.609375 56 
Q 42.328125 56 49.015625 48.375 
Q 55.71875 40.765625 55.71875 27.296875 
Q 55.71875 13.875 49.015625 6.21875 
Q 42.328125 -1.421875 30.609375 -1.421875 
Q 18.84375 -1.421875 12.171875 6.21875 
Q 5.515625 13.875 5.515625 27.296875 
Q 5.515625 40.765625 12.171875 48.375 
Q 18.84375 56 30.609375 56 
z
" id="DejaVuSans-111"/>
       <path d="M 9.421875 75.984375 
L 18.40625 75.984375 
L 18.40625 0 
L 9.421875 0 
z
" id="DejaVuSans-108"/>
      </defs>
      <use xlink:href="#DejaVuSans-76"/>
      <use x="55.712891" xlink:href="#DejaVuSans-97"/>
      <use x="116.992188" xlink:href="#DejaVuSans-103"/>
      <use x="180.46875" xlink:href="#DejaVuSans-114"/>
      <use x="221.582031" xlink:href="#DejaVuSans-97"/>
      <use x="282.861328" xlink:href="#DejaVuSans-110"/>
      <use x="346.240234" xlink:href="#DejaVuSans-103"/>
      <use x="409.716797" xlink:href="#DejaVuSans-101"/>
      <use x="471.240234" xlink:href="#DejaVuSans-32"/>
      <use x="503.027344" xlink:href="#DejaVuSans-105"/>
      <use x="530.810547" xlink:href="#DejaVuSans-110"/>
      <use x="594.189453" xlink:href="#DejaVuSans-116"/>
      <use x="633.398438" xlink:href="#DejaVuSans-101"/>
      <use x="694.921875" xlink:href="#DejaVuSans-114"/>
      <use x="736.035156" xlink:href="#DejaVuSans-112"/>
      <use x="799.511719" xlink:href="#DejaVuSans-111"/>
      <use x="860.693359" xlink:href="#DejaVuSans-108"/>
      <use x="888.476562" xlink:href="#DejaVuSans-97"/>
      <use x="949.755859" xlink:href="#DejaVuSans-116"/>
      <use x="988.964844" xlink:href="#DejaVuSans-105"/>
      <use x="1016.748047" xlink:href="#DejaVuSans-111"/>
      <use x="1077.929688" xlink:href="#DejaVuSans-110"/>
     </g>
    </g>
    <g id="line2d_23">
     <path d="M 66.6 83.926688 
L 86.6 83.926688 
" style="fill:none;stroke:#2ca02c;stroke-dasharray:9.6,2.4,1.5,2.4;stroke-dashoffset:0;stroke-width:1.5;"/>
    </g>
    <g id="line2d_24"/>
    <g id="text_17">
     <!-- NN Model -->
     <g transform="translate(94.6 87.426688)scale(0.1 -0.1)">
      <defs>
       <path d="M 9.8125 72.90625 
L 23.09375 72.90625 
L 55.421875 11.921875 
L 55.421875 72.90625 
L 64.984375 72.90625 
L 64.984375 0 
L 51.703125 0 
L 19.390625 60.984375 
L 19.390625 0 
L 9.8125 0 
z
" id="DejaVuSans-78"/>
       <path d="M 9.8125 72.90625 
L 24.515625 72.90625 
L 43.109375 23.296875 
L 61.8125 72.90625 
L 76.515625 72.90625 
L 76.515625 0 
L 66.890625 0 
L 66.890625 64.015625 
L 48.09375 14.015625 
L 38.1875 14.015625 
L 19.390625 64.015625 
L 19.390625 0 
L 9.8125 0 
z
" id="DejaVuSans-77"/>
       <path d="M 45.40625 46.390625 
L 45.40625 75.984375 
L 54.390625 75.984375 
L 54.390625 0 
L 45.40625 0 
L 45.40625 8.203125 
Q 42.578125 3.328125 38.25 0.953125 
Q 33.9375 -1.421875 27.875 -1.421875 
Q 17.96875 -1.421875 11.734375 6.484375 
Q 5.515625 14.40625 5.515625 27.296875 
Q 5.515625 40.1875 11.734375 48.09375 
Q 17.96875 56 27.875 56 
Q 33.9375 56 38.25 53.625 
Q 42.578125 51.265625 45.40625 46.390625 
z
M 14.796875 27.296875 
Q 14.796875 17.390625 18.875 11.75 
Q 22.953125 6.109375 30.078125 6.109375 
Q 37.203125 6.109375 41.296875 11.75 
Q 45.40625 17.390625 45.40625 27.296875 
Q 45.40625 37.203125 41.296875 42.84375 
Q 37.203125 48.484375 30.078125 48.484375 
Q 22.953125 48.484375 18.875 42.84375 
Q 14.796875 37.203125 14.796875 27.296875 
z
" id="DejaVuSans-100"/>
      </defs>
      <use xlink:href="#DejaVuSans-78"/>
      <use x="74.804688" xlink:href="#DejaVuSans-78"/>
      <use x="149.609375" xlink:href="#DejaVuSans-32"/>
      <use x="181.396484" xlink:href="#DejaVuSans-77"/>
      <use x="267.675781" xlink:href="#DejaVuSans-111"/>
      <use x="328.857422" xlink:href="#DejaVuSans-100"/>
      <use x="392.333984" xlink:href="#DejaVuSans-101"/>
      <use x="453.857422" xlink:href="#DejaVuSans-108"/>
     </g>
    </g>
    <g id="line2d_25"/>
    <g id="line2d_26">
     <g>
      <use style="fill:#d62728;stroke:#d62728;" x="76.6" xlink:href="#m04302c9717" y="98.604813"/>
     </g>
    </g>
    <g id="text_18">
     <!-- Samples -->
     <g transform="translate(94.6 102.104813)scale(0.1 -0.1)">
      <defs>
       <path d="M 53.515625 70.515625 
L 53.515625 60.890625 
Q 47.90625 63.578125 42.921875 64.890625 
Q 37.9375 66.21875 33.296875 66.21875 
Q 25.25 66.21875 20.875 63.09375 
Q 16.5 59.96875 16.5 54.203125 
Q 16.5 49.359375 19.40625 46.890625 
Q 22.3125 44.4375 30.421875 42.921875 
L 36.375 41.703125 
Q 47.40625 39.59375 52.65625 34.296875 
Q 57.90625 29 57.90625 20.125 
Q 57.90625 9.515625 50.796875 4.046875 
Q 43.703125 -1.421875 29.984375 -1.421875 
Q 24.8125 -1.421875 18.96875 -0.25 
Q 13.140625 0.921875 6.890625 3.21875 
L 6.890625 13.375 
Q 12.890625 10.015625 18.65625 8.296875 
Q 24.421875 6.59375 29.984375 6.59375 
Q 38.421875 6.59375 43.015625 9.90625 
Q 47.609375 13.234375 47.609375 19.390625 
Q 47.609375 24.75 44.3125 27.78125 
Q 41.015625 30.8125 33.5 32.328125 
L 27.484375 33.5 
Q 16.453125 35.6875 11.515625 40.375 
Q 6.59375 45.0625 6.59375 53.421875 
Q 6.59375 63.09375 13.40625 68.65625 
Q 20.21875 74.21875 32.171875 74.21875 
Q 37.3125 74.21875 42.625 73.28125 
Q 47.953125 72.359375 53.515625 70.515625 
z
" id="DejaVuSans-83"/>
       <path d="M 52 44.1875 
Q 55.375 50.25 60.0625 53.125 
Q 64.75 56 71.09375 56 
Q 79.640625 56 84.28125 50.015625 
Q 88.921875 44.046875 88.921875 33.015625 
L 88.921875 0 
L 79.890625 0 
L 79.890625 32.71875 
Q 79.890625 40.578125 77.09375 44.375 
Q 74.3125 48.1875 68.609375 48.1875 
Q 61.625 48.1875 57.5625 43.546875 
Q 53.515625 38.921875 53.515625 30.90625 
L 53.515625 0 
L 44.484375 0 
L 44.484375 32.71875 
Q 44.484375 40.625 41.703125 44.40625 
Q 38.921875 48.1875 33.109375 48.1875 
Q 26.21875 48.1875 22.15625 43.53125 
Q 18.109375 38.875 18.109375 30.90625 
L 18.109375 0 
L 9.078125 0 
L 9.078125 54.6875 
L 18.109375 54.6875 
L 18.109375 46.1875 
Q 21.1875 51.21875 25.484375 53.609375 
Q 29.78125 56 35.6875 56 
Q 41.65625 56 45.828125 52.96875 
Q 50 49.953125 52 44.1875 
z
" id="DejaVuSans-109"/>
      </defs>
      <use xlink:href="#DejaVuSans-83"/>
      <use x="63.476562" xlink:href="#DejaVuSans-97"/>
      <use x="124.755859" xlink:href="#DejaVuSans-109"/>
      <use x="222.167969" xlink:href="#DejaVuSans-112"/>
      <use x="285.644531" xlink:href="#DejaVuSans-108"/>
      <use x="313.427734" xlink:href="#DejaVuSans-101"/>
      <use x="374.951172" xlink:href="#DejaVuSans-115"/>
     </g>
    </g>
   </g>
  </g>
  <g id="text_19">
   <!-- Approximating sin(pi*x) using a neural network with 4 -->
   <g transform="translate(67.937813 16.030125)scale(0.12 -0.12)">
    <defs>
     <path d="M 34.1875 63.1875 
L 20.796875 26.90625 
L 47.609375 26.90625 
z
M 28.609375 72.90625 
L 39.796875 72.90625 
L 67.578125 0 
L 57.328125 0 
L 50.6875 18.703125 
L 17.828125 18.703125 
L 11.1875 0 
L 0.78125 0 
z
" id="DejaVuSans-65"/>
     <path d="M 8.5 21.578125 
L 8.5 54.6875 
L 17.484375 54.6875 
L 17.484375 21.921875 
Q 17.484375 14.15625 20.5 10.265625 
Q 23.53125 6.390625 29.59375 6.390625 
Q 36.859375 6.390625 41.078125 11.03125 
Q 45.3125 15.671875 45.3125 23.6875 
L 45.3125 54.6875 
L 54.296875 54.6875 
L 54.296875 0 
L 45.3125 0 
L 45.3125 8.40625 
Q 42.046875 3.421875 37.71875 1 
Q 33.40625 -1.421875 27.6875 -1.421875 
Q 18.265625 -1.421875 13.375 4.4375 
Q 8.5 10.296875 8.5 21.578125 
z
M 31.109375 56 
z
" id="DejaVuSans-117"/>
     <path d="M 4.203125 54.6875 
L 13.1875 54.6875 
L 24.421875 12.015625 
L 35.59375 54.6875 
L 46.1875 54.6875 
L 57.421875 12.015625 
L 68.609375 54.6875 
L 77.59375 54.6875 
L 63.28125 0 
L 52.6875 0 
L 40.921875 44.828125 
L 29.109375 0 
L 18.5 0 
z
" id="DejaVuSans-119"/>
     <path d="M 9.078125 75.984375 
L 18.109375 75.984375 
L 18.109375 31.109375 
L 44.921875 54.6875 
L 56.390625 54.6875 
L 27.390625 29.109375 
L 57.625 0 
L 45.90625 0 
L 18.109375 26.703125 
L 18.109375 0 
L 9.078125 0 
z
" id="DejaVuSans-107"/>
     <path d="M 54.890625 33.015625 
L 54.890625 0 
L 45.90625 0 
L 45.90625 32.71875 
Q 45.90625 40.484375 42.875 44.328125 
Q 39.84375 48.1875 33.796875 48.1875 
Q 26.515625 48.1875 22.3125 43.546875 
Q 18.109375 38.921875 18.109375 30.90625 
L 18.109375 0 
L 9.078125 0 
L 9.078125 75.984375 
L 18.109375 75.984375 
L 18.109375 46.1875 
Q 21.34375 51.125 25.703125 53.5625 
Q 30.078125 56 35.796875 56 
Q 45.21875 56 50.046875 50.171875 
Q 54.890625 44.34375 54.890625 33.015625 
z
" id="DejaVuSans-104"/>
     <path d="M 37.796875 64.3125 
L 12.890625 25.390625 
L 37.796875 25.390625 
z
M 35.203125 72.90625 
L 47.609375 72.90625 
L 47.609375 25.390625 
L 58.015625 25.390625 
L 58.015625 17.1875 
L 47.609375 17.1875 
L 47.609375 0 
L 37.796875 0 
L 37.796875 17.1875 
L 4.890625 17.1875 
L 4.890625 26.703125 
z
" id="DejaVuSans-52"/>
    </defs>
    <use xlink:href="#DejaVuSans-65"/>
    <use x="68.408203" xlink:href="#DejaVuSans-112"/>
    <use x="131.884766" xlink:href="#DejaVuSans-112"/>
    <use x="195.361328" xlink:href="#DejaVuSans-114"/>
    <use x="234.224609" xlink:href="#DejaVuSans-111"/>
    <use x="292.28125" xlink:href="#DejaVuSans-120"/>
    <use x="351.460938" xlink:href="#DejaVuSans-105"/>
    <use x="379.244141" xlink:href="#DejaVuSans-109"/>
    <use x="476.65625" xlink:href="#DejaVuSans-97"/>
    <use x="537.935547" xlink:href="#DejaVuSans-116"/>
    <use x="577.144531" xlink:href="#DejaVuSans-105"/>
    <use x="604.927734" xlink:href="#DejaVuSans-110"/>
    <use x="668.306641" xlink:href="#DejaVuSans-103"/>
    <use x="731.783203" xlink:href="#DejaVuSans-32"/>
    <use x="763.570312" xlink:href="#DejaVuSans-115"/>
    <use x="815.669922" xlink:href="#DejaVuSans-105"/>
    <use x="843.453125" xlink:href="#DejaVuSans-110"/>
    <use x="906.832031" xlink:href="#DejaVuSans-40"/>
    <use x="945.845703" xlink:href="#DejaVuSans-112"/>
    <use x="1009.322266" xlink:href="#DejaVuSans-105"/>
    <use x="1037.105469" xlink:href="#DejaVuSans-42"/>
    <use x="1087.105469" xlink:href="#DejaVuSans-120"/>
    <use x="1146.285156" xlink:href="#DejaVuSans-41"/>
    <use x="1185.298828" xlink:href="#DejaVuSans-32"/>
    <use x="1217.085938" xlink:href="#DejaVuSans-117"/>
    <use x="1280.464844" xlink:href="#DejaVuSans-115"/>
    <use x="1332.564453" xlink:href="#DejaVuSans-105"/>
    <use x="1360.347656" xlink:href="#DejaVuSans-110"/>
    <use x="1423.726562" xlink:href="#DejaVuSans-103"/>
    <use x="1487.203125" xlink:href="#DejaVuSans-32"/>
    <use x="1518.990234" xlink:href="#DejaVuSans-97"/>
    <use x="1580.269531" xlink:href="#DejaVuSans-32"/>
    <use x="1612.056641" xlink:href="#DejaVuSans-110"/>
    <use x="1675.435547" xlink:href="#DejaVuSans-101"/>
    <use x="1736.958984" xlink:href="#DejaVuSans-117"/>
    <use x="1800.337891" xlink:href="#DejaVuSans-114"/>
    <use x="1841.451172" xlink:href="#DejaVuSans-97"/>
    <use x="1902.730469" xlink:href="#DejaVuSans-108"/>
    <use x="1930.513672" xlink:href="#DejaVuSans-32"/>
    <use x="1962.300781" xlink:href="#DejaVuSans-110"/>
    <use x="2025.679688" xlink:href="#DejaVuSans-101"/>
    <use x="2087.203125" xlink:href="#DejaVuSans-116"/>
    <use x="2126.412109" xlink:href="#DejaVuSans-119"/>
    <use x="2208.199219" xlink:href="#DejaVuSans-111"/>
    <use x="2269.380859" xlink:href="#DejaVuSans-114"/>
    <use x="2310.494141" xlink:href="#DejaVuSans-107"/>
    <use x="2368.404297" xlink:href="#DejaVuSans-32"/>
    <use x="2400.191406" xlink:href="#DejaVuSans-119"/>
    <use x="2481.978516" xlink:href="#DejaVuSans-105"/>
    <use x="2509.761719" xlink:href="#DejaVuSans-116"/>
    <use x="2548.970703" xlink:href="#DejaVuSans-104"/>
    <use x="2612.349609" xlink:href="#DejaVuSans-32"/>
    <use x="2644.136719" xlink:href="#DejaVuSans-52"/>
   </g>
   <!-- neurons trained with 6 evenly spaced points to 1000000 -->
   <g transform="translate(60.364688 29.4675)scale(0.12 -0.12)">
    <defs>
     <path d="M 33.015625 40.375 
Q 26.375 40.375 22.484375 35.828125 
Q 18.609375 31.296875 18.609375 23.390625 
Q 18.609375 15.53125 22.484375 10.953125 
Q 26.375 6.390625 33.015625 6.390625 
Q 39.65625 6.390625 43.53125 10.953125 
Q 47.40625 15.53125 47.40625 23.390625 
Q 47.40625 31.296875 43.53125 35.828125 
Q 39.65625 40.375 33.015625 40.375 
z
M 52.59375 71.296875 
L 52.59375 62.3125 
Q 48.875 64.0625 45.09375 64.984375 
Q 41.3125 65.921875 37.59375 65.921875 
Q 27.828125 65.921875 22.671875 59.328125 
Q 17.53125 52.734375 16.796875 39.40625 
Q 19.671875 43.65625 24.015625 45.921875 
Q 28.375 48.1875 33.59375 48.1875 
Q 44.578125 48.1875 50.953125 41.515625 
Q 57.328125 34.859375 57.328125 23.390625 
Q 57.328125 12.15625 50.6875 5.359375 
Q 44.046875 -1.421875 33.015625 -1.421875 
Q 20.359375 -1.421875 13.671875 8.265625 
Q 6.984375 17.96875 6.984375 36.375 
Q 6.984375 53.65625 15.1875 63.9375 
Q 23.390625 74.21875 37.203125 74.21875 
Q 40.921875 74.21875 44.703125 73.484375 
Q 48.484375 72.75 52.59375 71.296875 
z
" id="DejaVuSans-54"/>
     <path d="M 2.984375 54.6875 
L 12.5 54.6875 
L 29.59375 8.796875 
L 46.6875 54.6875 
L 56.203125 54.6875 
L 35.6875 0 
L 23.484375 0 
z
" id="DejaVuSans-118"/>
     <path d="M 32.171875 -5.078125 
Q 28.375 -14.84375 24.75 -17.8125 
Q 21.140625 -20.796875 15.09375 -20.796875 
L 7.90625 -20.796875 
L 7.90625 -13.28125 
L 13.1875 -13.28125 
Q 16.890625 -13.28125 18.9375 -11.515625 
Q 21 -9.765625 23.484375 -3.21875 
L 25.09375 0.875 
L 2.984375 54.6875 
L 12.5 54.6875 
L 29.59375 11.921875 
L 46.6875 54.6875 
L 56.203125 54.6875 
z
" id="DejaVuSans-121"/>
     <path d="M 48.78125 52.59375 
L 48.78125 44.1875 
Q 44.96875 46.296875 41.140625 47.34375 
Q 37.3125 48.390625 33.40625 48.390625 
Q 24.65625 48.390625 19.8125 42.84375 
Q 14.984375 37.3125 14.984375 27.296875 
Q 14.984375 17.28125 19.8125 11.734375 
Q 24.65625 6.203125 33.40625 6.203125 
Q 37.3125 6.203125 41.140625 7.25 
Q 44.96875 8.296875 48.78125 10.40625 
L 48.78125 2.09375 
Q 45.015625 0.34375 40.984375 -0.53125 
Q 36.96875 -1.421875 32.421875 -1.421875 
Q 20.0625 -1.421875 12.78125 6.34375 
Q 5.515625 14.109375 5.515625 27.296875 
Q 5.515625 40.671875 12.859375 48.328125 
Q 20.21875 56 33.015625 56 
Q 37.15625 56 41.109375 55.140625 
Q 45.0625 54.296875 48.78125 52.59375 
z
" id="DejaVuSans-99"/>
    </defs>
    <use xlink:href="#DejaVuSans-110"/>
    <use x="63.378906" xlink:href="#DejaVuSans-101"/>
    <use x="124.902344" xlink:href="#DejaVuSans-117"/>
    <use x="188.28125" xlink:href="#DejaVuSans-114"/>
    <use x="227.144531" xlink:href="#DejaVuSans-111"/>
    <use x="288.326172" xlink:href="#DejaVuSans-110"/>
    <use x="351.705078" xlink:href="#DejaVuSans-115"/>
    <use x="403.804688" xlink:href="#DejaVuSans-32"/>
    <use x="435.591797" xlink:href="#DejaVuSans-116"/>
    <use x="474.800781" xlink:href="#DejaVuSans-114"/>
    <use x="515.914062" xlink:href="#DejaVuSans-97"/>
    <use x="577.193359" xlink:href="#DejaVuSans-105"/>
    <use x="604.976562" xlink:href="#DejaVuSans-110"/>
    <use x="668.355469" xlink:href="#DejaVuSans-101"/>
    <use x="729.878906" xlink:href="#DejaVuSans-100"/>
    <use x="793.355469" xlink:href="#DejaVuSans-32"/>
    <use x="825.142578" xlink:href="#DejaVuSans-119"/>
    <use x="906.929688" xlink:href="#DejaVuSans-105"/>
    <use x="934.712891" xlink:href="#DejaVuSans-116"/>
    <use x="973.921875" xlink:href="#DejaVuSans-104"/>
    <use x="1037.300781" xlink:href="#DejaVuSans-32"/>
    <use x="1069.087891" xlink:href="#DejaVuSans-54"/>
    <use x="1132.710938" xlink:href="#DejaVuSans-32"/>
    <use x="1164.498047" xlink:href="#DejaVuSans-101"/>
    <use x="1226.021484" xlink:href="#DejaVuSans-118"/>
    <use x="1285.201172" xlink:href="#DejaVuSans-101"/>
    <use x="1346.724609" xlink:href="#DejaVuSans-110"/>
    <use x="1410.103516" xlink:href="#DejaVuSans-108"/>
    <use x="1437.886719" xlink:href="#DejaVuSans-121"/>
    <use x="1497.066406" xlink:href="#DejaVuSans-32"/>
    <use x="1528.853516" xlink:href="#DejaVuSans-115"/>
    <use x="1580.953125" xlink:href="#DejaVuSans-112"/>
    <use x="1644.429688" xlink:href="#DejaVuSans-97"/>
    <use x="1705.708984" xlink:href="#DejaVuSans-99"/>
    <use x="1760.689453" xlink:href="#DejaVuSans-101"/>
    <use x="1822.212891" xlink:href="#DejaVuSans-100"/>
    <use x="1885.689453" xlink:href="#DejaVuSans-32"/>
    <use x="1917.476562" xlink:href="#DejaVuSans-112"/>
    <use x="1980.953125" xlink:href="#DejaVuSans-111"/>
    <use x="2042.134766" xlink:href="#DejaVuSans-105"/>
    <use x="2069.917969" xlink:href="#DejaVuSans-110"/>
    <use x="2133.296875" xlink:href="#DejaVuSans-116"/>
    <use x="2172.505859" xlink:href="#DejaVuSans-115"/>
    <use x="2224.605469" xlink:href="#DejaVuSans-32"/>
    <use x="2256.392578" xlink:href="#DejaVuSans-116"/>
    <use x="2295.601562" xlink:href="#DejaVuSans-111"/>
    <use x="2356.783203" xlink:href="#DejaVuSans-32"/>
    <use x="2388.570312" xlink:href="#DejaVuSans-49"/>
    <use x="2452.193359" xlink:href="#DejaVuSans-48"/>
    <use x="2515.816406" xlink:href="#DejaVuSans-48"/>
    <use x="2579.439453" xlink:href="#DejaVuSans-48"/>
    <use x="2643.0625" xlink:href="#DejaVuSans-48"/>
    <use x="2706.685547" xlink:href="#DejaVuSans-48"/>
    <use x="2770.308594" xlink:href="#DejaVuSans-48"/>
   </g>
   <!-- epochs -->
   <g transform="translate(209.000625 42.904875)scale(0.12 -0.12)">
    <use xlink:href="#DejaVuSans-101"/>
    <use x="61.523438" xlink:href="#DejaVuSans-112"/>
    <use x="125" xlink:href="#DejaVuSans-111"/>
    <use x="186.181641" xlink:href="#DejaVuSans-99"/>
    <use x="241.162109" xlink:href="#DejaVuSans-104"/>
    <use x="304.541016" xlink:href="#DejaVuSans-115"/>
   </g>
  </g>
 </g>
 <defs>
  <clipPath id="pef4fb300ba">
   <rect height="266.112" width="357.12" x="57.6" y="41.472"/>
  </clipPath>
 </defs>
</svg>
